<mxfile host="Electron" agent="Mozilla/5.0 (Windows NT 10.0; Win64; x64) AppleWebKit/537.36 (KHTML, like Gecko) draw.io/24.7.17 Chrome/128.0.6613.36 Electron/32.0.1 Safari/537.36" version="24.7.17">
  <diagram name="Page-1" id="4MTHjWbhZmEE_0uj6Phz">
    <mxGraphModel dx="1687" dy="3296" grid="1" gridSize="10" guides="1" tooltips="1" connect="1" arrows="1" fold="1" page="1" pageScale="2" pageWidth="827" pageHeight="1169" math="0" shadow="0">
      <root>
        <mxCell id="0" />
        <mxCell id="1" parent="0" />
        <mxCell id="Zx1S_rPHcm9R6PSDVk1h-3" value="" style="group" parent="1" vertex="1" connectable="0">
          <mxGeometry x="10" y="200" width="90" height="80" as="geometry" />
        </mxCell>
        <mxCell id="Zx1S_rPHcm9R6PSDVk1h-1" value="" style="shape=lineEllipse;line=vertical;perimeter=ellipsePerimeter;whiteSpace=wrap;html=1;backgroundOutline=1;align=left;" parent="Zx1S_rPHcm9R6PSDVk1h-3" vertex="1">
          <mxGeometry width="80" height="80" as="geometry" />
        </mxCell>
        <mxCell id="Zx1S_rPHcm9R6PSDVk1h-2" value="" style="endArrow=none;html=1;rounded=0;" parent="Zx1S_rPHcm9R6PSDVk1h-3" edge="1">
          <mxGeometry width="50" height="50" relative="1" as="geometry">
            <mxPoint x="40" y="39.5" as="sourcePoint" />
            <mxPoint x="80" y="40" as="targetPoint" />
          </mxGeometry>
        </mxCell>
        <mxCell id="Zx1S_rPHcm9R6PSDVk1h-86" value="A" style="text;html=1;align=center;verticalAlign=middle;whiteSpace=wrap;rounded=0;" parent="Zx1S_rPHcm9R6PSDVk1h-3" vertex="1">
          <mxGeometry x="-10" y="25" width="60" height="30" as="geometry" />
        </mxCell>
        <mxCell id="Zx1S_rPHcm9R6PSDVk1h-101" value="0" style="text;html=1;align=center;verticalAlign=middle;whiteSpace=wrap;rounded=0;fontColor=#f92f2f;fontStyle=1;fontSize=20;" parent="Zx1S_rPHcm9R6PSDVk1h-3" vertex="1">
          <mxGeometry x="30" y="40" width="60" height="30" as="geometry" />
        </mxCell>
        <mxCell id="Zx1S_rPHcm9R6PSDVk1h-135" value="0" style="text;html=1;align=center;verticalAlign=middle;whiteSpace=wrap;rounded=0;fontColor=#009900;fontStyle=1;fontSize=20;" parent="Zx1S_rPHcm9R6PSDVk1h-3" vertex="1">
          <mxGeometry x="30" y="10" width="60" height="30" as="geometry" />
        </mxCell>
        <mxCell id="Zx1S_rPHcm9R6PSDVk1h-6" value="" style="group" parent="1" vertex="1" connectable="0">
          <mxGeometry x="170" y="120" width="90" height="80" as="geometry" />
        </mxCell>
        <mxCell id="Zx1S_rPHcm9R6PSDVk1h-7" value="" style="shape=lineEllipse;line=vertical;perimeter=ellipsePerimeter;whiteSpace=wrap;html=1;backgroundOutline=1;" parent="Zx1S_rPHcm9R6PSDVk1h-6" vertex="1">
          <mxGeometry width="80" height="80" as="geometry" />
        </mxCell>
        <mxCell id="Zx1S_rPHcm9R6PSDVk1h-8" value="" style="endArrow=none;html=1;rounded=0;" parent="Zx1S_rPHcm9R6PSDVk1h-6" edge="1">
          <mxGeometry width="50" height="50" relative="1" as="geometry">
            <mxPoint x="40" y="39.5" as="sourcePoint" />
            <mxPoint x="80" y="40" as="targetPoint" />
          </mxGeometry>
        </mxCell>
        <mxCell id="Zx1S_rPHcm9R6PSDVk1h-87" value="B" style="text;html=1;align=center;verticalAlign=middle;whiteSpace=wrap;rounded=0;" parent="Zx1S_rPHcm9R6PSDVk1h-6" vertex="1">
          <mxGeometry x="-10" y="25" width="60" height="30" as="geometry" />
        </mxCell>
        <mxCell id="Zx1S_rPHcm9R6PSDVk1h-102" value="5" style="text;html=1;align=center;verticalAlign=middle;whiteSpace=wrap;rounded=0;fontColor=#f92f2f;fontStyle=1;fontSize=20;" parent="Zx1S_rPHcm9R6PSDVk1h-6" vertex="1">
          <mxGeometry x="30" y="40" width="60" height="30" as="geometry" />
        </mxCell>
        <mxCell id="Zx1S_rPHcm9R6PSDVk1h-136" value="5" style="text;html=1;align=center;verticalAlign=middle;whiteSpace=wrap;rounded=0;fontColor=#009900;fontStyle=1;fontSize=20;" parent="Zx1S_rPHcm9R6PSDVk1h-6" vertex="1">
          <mxGeometry x="30" y="10" width="60" height="30" as="geometry" />
        </mxCell>
        <mxCell id="Zx1S_rPHcm9R6PSDVk1h-9" value="" style="group" parent="1" vertex="1" connectable="0">
          <mxGeometry x="170" y="280" width="90" height="80" as="geometry" />
        </mxCell>
        <mxCell id="Zx1S_rPHcm9R6PSDVk1h-10" value="" style="shape=lineEllipse;line=vertical;perimeter=ellipsePerimeter;whiteSpace=wrap;html=1;backgroundOutline=1;" parent="Zx1S_rPHcm9R6PSDVk1h-9" vertex="1">
          <mxGeometry width="80" height="80" as="geometry" />
        </mxCell>
        <mxCell id="Zx1S_rPHcm9R6PSDVk1h-11" value="" style="endArrow=none;html=1;rounded=0;" parent="Zx1S_rPHcm9R6PSDVk1h-9" edge="1">
          <mxGeometry width="50" height="50" relative="1" as="geometry">
            <mxPoint x="40" y="39.5" as="sourcePoint" />
            <mxPoint x="80" y="40" as="targetPoint" />
          </mxGeometry>
        </mxCell>
        <mxCell id="Zx1S_rPHcm9R6PSDVk1h-88" value="C" style="text;html=1;align=center;verticalAlign=middle;whiteSpace=wrap;rounded=0;" parent="Zx1S_rPHcm9R6PSDVk1h-9" vertex="1">
          <mxGeometry x="-10" y="25" width="60" height="30" as="geometry" />
        </mxCell>
        <mxCell id="Zx1S_rPHcm9R6PSDVk1h-103" value="2" style="text;html=1;align=center;verticalAlign=middle;whiteSpace=wrap;rounded=0;fontColor=#f92f2f;fontStyle=1;fontSize=20;" parent="Zx1S_rPHcm9R6PSDVk1h-9" vertex="1">
          <mxGeometry x="30" y="40" width="60" height="30" as="geometry" />
        </mxCell>
        <mxCell id="Zx1S_rPHcm9R6PSDVk1h-138" value="7" style="text;html=1;align=center;verticalAlign=middle;whiteSpace=wrap;rounded=0;fontColor=#009900;fontStyle=1;fontSize=20;" parent="Zx1S_rPHcm9R6PSDVk1h-9" vertex="1">
          <mxGeometry x="30" y="10" width="60" height="30" as="geometry" />
        </mxCell>
        <mxCell id="Zx1S_rPHcm9R6PSDVk1h-12" value="" style="group" parent="1" vertex="1" connectable="0">
          <mxGeometry x="940" y="310" width="90" height="80" as="geometry" />
        </mxCell>
        <mxCell id="Zx1S_rPHcm9R6PSDVk1h-13" value="" style="shape=lineEllipse;line=vertical;perimeter=ellipsePerimeter;whiteSpace=wrap;html=1;backgroundOutline=1;" parent="Zx1S_rPHcm9R6PSDVk1h-12" vertex="1">
          <mxGeometry width="80" height="80" as="geometry" />
        </mxCell>
        <mxCell id="Zx1S_rPHcm9R6PSDVk1h-14" value="" style="endArrow=none;html=1;rounded=0;" parent="Zx1S_rPHcm9R6PSDVk1h-12" edge="1">
          <mxGeometry width="50" height="50" relative="1" as="geometry">
            <mxPoint x="40" y="39.5" as="sourcePoint" />
            <mxPoint x="80" y="40" as="targetPoint" />
          </mxGeometry>
        </mxCell>
        <mxCell id="Zx1S_rPHcm9R6PSDVk1h-99" value="N" style="text;html=1;align=center;verticalAlign=middle;whiteSpace=wrap;rounded=0;" parent="Zx1S_rPHcm9R6PSDVk1h-12" vertex="1">
          <mxGeometry x="-10" y="25" width="60" height="30" as="geometry" />
        </mxCell>
        <mxCell id="Zx1S_rPHcm9R6PSDVk1h-117" value="65" style="text;html=1;align=center;verticalAlign=middle;whiteSpace=wrap;rounded=0;fontColor=#f92f2f;fontStyle=1;fontSize=20;" parent="Zx1S_rPHcm9R6PSDVk1h-12" vertex="1">
          <mxGeometry x="30" y="40" width="60" height="30" as="geometry" />
        </mxCell>
        <mxCell id="Zx1S_rPHcm9R6PSDVk1h-142" value="65" style="text;html=1;align=center;verticalAlign=middle;whiteSpace=wrap;rounded=0;fontColor=#009900;fontStyle=1;fontSize=20;" parent="Zx1S_rPHcm9R6PSDVk1h-12" vertex="1">
          <mxGeometry x="45" y="10" width="30" height="30" as="geometry" />
        </mxCell>
        <mxCell id="Zx1S_rPHcm9R6PSDVk1h-15" value="" style="group" parent="1" vertex="1" connectable="0">
          <mxGeometry x="410" y="400" width="90" height="80" as="geometry" />
        </mxCell>
        <mxCell id="Zx1S_rPHcm9R6PSDVk1h-16" value="" style="shape=lineEllipse;line=vertical;perimeter=ellipsePerimeter;whiteSpace=wrap;html=1;backgroundOutline=1;" parent="Zx1S_rPHcm9R6PSDVk1h-15" vertex="1">
          <mxGeometry width="80" height="80" as="geometry" />
        </mxCell>
        <mxCell id="Zx1S_rPHcm9R6PSDVk1h-17" value="" style="endArrow=none;html=1;rounded=0;" parent="Zx1S_rPHcm9R6PSDVk1h-15" edge="1">
          <mxGeometry width="50" height="50" relative="1" as="geometry">
            <mxPoint x="40" y="39.5" as="sourcePoint" />
            <mxPoint x="80" y="40" as="targetPoint" />
          </mxGeometry>
        </mxCell>
        <mxCell id="Zx1S_rPHcm9R6PSDVk1h-90" value="E" style="text;html=1;align=center;verticalAlign=middle;whiteSpace=wrap;rounded=0;" parent="Zx1S_rPHcm9R6PSDVk1h-15" vertex="1">
          <mxGeometry x="-10" y="25" width="60" height="30" as="geometry" />
        </mxCell>
        <mxCell id="Zx1S_rPHcm9R6PSDVk1h-104" value="12" style="text;html=1;align=center;verticalAlign=middle;whiteSpace=wrap;rounded=0;fontColor=#f92f2f;fontStyle=1;fontSize=20;" parent="Zx1S_rPHcm9R6PSDVk1h-15" vertex="1">
          <mxGeometry x="30" y="40" width="60" height="30" as="geometry" />
        </mxCell>
        <mxCell id="Zx1S_rPHcm9R6PSDVk1h-175" value="36" style="text;html=1;align=center;verticalAlign=middle;whiteSpace=wrap;rounded=0;fontColor=#009900;fontStyle=1;fontSize=20;" parent="Zx1S_rPHcm9R6PSDVk1h-15" vertex="1">
          <mxGeometry x="30" y="10" width="60" height="30" as="geometry" />
        </mxCell>
        <mxCell id="Zx1S_rPHcm9R6PSDVk1h-18" value="" style="group" parent="1" vertex="1" connectable="0">
          <mxGeometry x="570" y="260" width="90" height="80" as="geometry" />
        </mxCell>
        <mxCell id="Zx1S_rPHcm9R6PSDVk1h-19" value="" style="shape=lineEllipse;line=vertical;perimeter=ellipsePerimeter;whiteSpace=wrap;html=1;backgroundOutline=1;" parent="Zx1S_rPHcm9R6PSDVk1h-18" vertex="1">
          <mxGeometry width="80" height="80" as="geometry" />
        </mxCell>
        <mxCell id="Zx1S_rPHcm9R6PSDVk1h-20" value="" style="endArrow=none;html=1;rounded=0;" parent="Zx1S_rPHcm9R6PSDVk1h-18" edge="1">
          <mxGeometry width="50" height="50" relative="1" as="geometry">
            <mxPoint x="40" y="39.5" as="sourcePoint" />
            <mxPoint x="80" y="40" as="targetPoint" />
          </mxGeometry>
        </mxCell>
        <mxCell id="Zx1S_rPHcm9R6PSDVk1h-93" value="H" style="text;html=1;align=center;verticalAlign=middle;whiteSpace=wrap;rounded=0;" parent="Zx1S_rPHcm9R6PSDVk1h-18" vertex="1">
          <mxGeometry x="-10" y="25" width="60" height="30" as="geometry" />
        </mxCell>
        <mxCell id="Zx1S_rPHcm9R6PSDVk1h-113" value="40" style="text;html=1;align=center;verticalAlign=middle;whiteSpace=wrap;rounded=0;fontColor=#f92f2f;fontStyle=1;fontSize=20;" parent="Zx1S_rPHcm9R6PSDVk1h-18" vertex="1">
          <mxGeometry x="30" y="40" width="60" height="30" as="geometry" />
        </mxCell>
        <mxCell id="Zx1S_rPHcm9R6PSDVk1h-140" value="40" style="text;html=1;align=center;verticalAlign=middle;whiteSpace=wrap;rounded=0;fontColor=#009900;fontStyle=1;fontSize=20;" parent="Zx1S_rPHcm9R6PSDVk1h-18" vertex="1">
          <mxGeometry x="30" y="10" width="60" height="30" as="geometry" />
        </mxCell>
        <mxCell id="Zx1S_rPHcm9R6PSDVk1h-21" value="" style="group" parent="1" vertex="1" connectable="0">
          <mxGeometry x="570" y="120" width="90" height="80" as="geometry" />
        </mxCell>
        <mxCell id="Zx1S_rPHcm9R6PSDVk1h-22" value="" style="shape=lineEllipse;line=vertical;perimeter=ellipsePerimeter;whiteSpace=wrap;html=1;backgroundOutline=1;" parent="Zx1S_rPHcm9R6PSDVk1h-21" vertex="1">
          <mxGeometry width="80" height="80" as="geometry" />
        </mxCell>
        <mxCell id="Zx1S_rPHcm9R6PSDVk1h-23" value="" style="endArrow=none;html=1;rounded=0;" parent="Zx1S_rPHcm9R6PSDVk1h-21" edge="1">
          <mxGeometry width="50" height="50" relative="1" as="geometry">
            <mxPoint x="40" y="39.5" as="sourcePoint" />
            <mxPoint x="80" y="40" as="targetPoint" />
          </mxGeometry>
        </mxCell>
        <mxCell id="Zx1S_rPHcm9R6PSDVk1h-92" value="G" style="text;html=1;align=center;verticalAlign=middle;whiteSpace=wrap;rounded=0;" parent="Zx1S_rPHcm9R6PSDVk1h-21" vertex="1">
          <mxGeometry x="-10" y="25" width="60" height="30" as="geometry" />
        </mxCell>
        <mxCell id="Zx1S_rPHcm9R6PSDVk1h-108" value="25" style="text;html=1;align=center;verticalAlign=middle;whiteSpace=wrap;rounded=0;fontColor=#f92f2f;fontStyle=1;fontSize=20;" parent="Zx1S_rPHcm9R6PSDVk1h-21" vertex="1">
          <mxGeometry x="30" y="40" width="60" height="30" as="geometry" />
        </mxCell>
        <mxCell id="Zx1S_rPHcm9R6PSDVk1h-176" value="40" style="text;html=1;align=center;verticalAlign=middle;whiteSpace=wrap;rounded=0;fontColor=#009900;fontStyle=1;fontSize=20;" parent="Zx1S_rPHcm9R6PSDVk1h-21" vertex="1">
          <mxGeometry x="30" y="10" width="60" height="30" as="geometry" />
        </mxCell>
        <mxCell id="Zx1S_rPHcm9R6PSDVk1h-24" value="" style="group" parent="1" vertex="1" connectable="0">
          <mxGeometry x="570" y="400" width="90" height="80" as="geometry" />
        </mxCell>
        <mxCell id="Zx1S_rPHcm9R6PSDVk1h-25" value="" style="shape=lineEllipse;line=vertical;perimeter=ellipsePerimeter;whiteSpace=wrap;html=1;backgroundOutline=1;" parent="Zx1S_rPHcm9R6PSDVk1h-24" vertex="1">
          <mxGeometry width="80" height="80" as="geometry" />
        </mxCell>
        <mxCell id="Zx1S_rPHcm9R6PSDVk1h-26" value="" style="endArrow=none;html=1;rounded=0;" parent="Zx1S_rPHcm9R6PSDVk1h-24" edge="1">
          <mxGeometry width="50" height="50" relative="1" as="geometry">
            <mxPoint x="40" y="39.5" as="sourcePoint" />
            <mxPoint x="80" y="40" as="targetPoint" />
          </mxGeometry>
        </mxCell>
        <mxCell id="Zx1S_rPHcm9R6PSDVk1h-94" value="I" style="text;html=1;align=center;verticalAlign=middle;whiteSpace=wrap;rounded=0;" parent="Zx1S_rPHcm9R6PSDVk1h-24" vertex="1">
          <mxGeometry x="-10" y="25" width="60" height="30" as="geometry" />
        </mxCell>
        <mxCell id="Zx1S_rPHcm9R6PSDVk1h-109" value="16" style="text;html=1;align=center;verticalAlign=middle;whiteSpace=wrap;rounded=0;fontColor=#f92f2f;fontStyle=1;fontSize=20;" parent="Zx1S_rPHcm9R6PSDVk1h-24" vertex="1">
          <mxGeometry x="30" y="40" width="60" height="30" as="geometry" />
        </mxCell>
        <mxCell id="Zx1S_rPHcm9R6PSDVk1h-174" value="40" style="text;html=1;align=center;verticalAlign=middle;whiteSpace=wrap;rounded=0;fontColor=#009900;fontStyle=1;fontSize=20;" parent="Zx1S_rPHcm9R6PSDVk1h-24" vertex="1">
          <mxGeometry x="30" y="10" width="60" height="30" as="geometry" />
        </mxCell>
        <mxCell id="Zx1S_rPHcm9R6PSDVk1h-27" value="" style="group" parent="1" vertex="1" connectable="0">
          <mxGeometry x="410" y="120" width="90" height="80" as="geometry" />
        </mxCell>
        <mxCell id="Zx1S_rPHcm9R6PSDVk1h-28" value="" style="shape=lineEllipse;line=vertical;perimeter=ellipsePerimeter;whiteSpace=wrap;html=1;backgroundOutline=1;" parent="Zx1S_rPHcm9R6PSDVk1h-27" vertex="1">
          <mxGeometry width="80" height="80" as="geometry" />
        </mxCell>
        <mxCell id="Zx1S_rPHcm9R6PSDVk1h-29" value="" style="endArrow=none;html=1;rounded=0;" parent="Zx1S_rPHcm9R6PSDVk1h-27" edge="1">
          <mxGeometry width="50" height="50" relative="1" as="geometry">
            <mxPoint x="40" y="39.5" as="sourcePoint" />
            <mxPoint x="80" y="40" as="targetPoint" />
          </mxGeometry>
        </mxCell>
        <mxCell id="Zx1S_rPHcm9R6PSDVk1h-89" value="D" style="text;html=1;align=center;verticalAlign=middle;whiteSpace=wrap;rounded=0;" parent="Zx1S_rPHcm9R6PSDVk1h-27" vertex="1">
          <mxGeometry x="-10" y="25" width="60" height="30" as="geometry" />
        </mxCell>
        <mxCell id="Zx1S_rPHcm9R6PSDVk1h-106" value="15" style="text;html=1;align=center;verticalAlign=middle;whiteSpace=wrap;rounded=0;fontColor=#f92f2f;fontStyle=1;fontSize=20;" parent="Zx1S_rPHcm9R6PSDVk1h-27" vertex="1">
          <mxGeometry x="30" y="40" width="60" height="30" as="geometry" />
        </mxCell>
        <mxCell id="Zx1S_rPHcm9R6PSDVk1h-137" value="30" style="text;html=1;align=center;verticalAlign=middle;whiteSpace=wrap;rounded=0;fontColor=#009900;fontStyle=1;fontSize=20;" parent="Zx1S_rPHcm9R6PSDVk1h-27" vertex="1">
          <mxGeometry x="30" y="10" width="60" height="30" as="geometry" />
        </mxCell>
        <mxCell id="Zx1S_rPHcm9R6PSDVk1h-30" value="" style="group" parent="1" vertex="1" connectable="0">
          <mxGeometry x="1140" y="310" width="90" height="80" as="geometry" />
        </mxCell>
        <mxCell id="Zx1S_rPHcm9R6PSDVk1h-31" value="" style="shape=lineEllipse;line=vertical;perimeter=ellipsePerimeter;whiteSpace=wrap;html=1;backgroundOutline=1;" parent="Zx1S_rPHcm9R6PSDVk1h-30" vertex="1">
          <mxGeometry width="80" height="80" as="geometry" />
        </mxCell>
        <mxCell id="Zx1S_rPHcm9R6PSDVk1h-32" value="" style="endArrow=none;html=1;rounded=0;" parent="Zx1S_rPHcm9R6PSDVk1h-30" edge="1">
          <mxGeometry width="50" height="50" relative="1" as="geometry">
            <mxPoint x="40" y="39.5" as="sourcePoint" />
            <mxPoint x="80" y="40" as="targetPoint" />
          </mxGeometry>
        </mxCell>
        <mxCell id="Zx1S_rPHcm9R6PSDVk1h-100" value="O" style="text;html=1;align=center;verticalAlign=middle;whiteSpace=wrap;rounded=0;" parent="Zx1S_rPHcm9R6PSDVk1h-30" vertex="1">
          <mxGeometry x="-10" y="25" width="60" height="30" as="geometry" />
        </mxCell>
        <mxCell id="Zx1S_rPHcm9R6PSDVk1h-111" value="95" style="text;html=1;align=center;verticalAlign=middle;whiteSpace=wrap;rounded=0;fontColor=#f92f2f;fontStyle=1;fontSize=20;" parent="Zx1S_rPHcm9R6PSDVk1h-30" vertex="1">
          <mxGeometry x="30" y="40" width="60" height="30" as="geometry" />
        </mxCell>
        <mxCell id="Zx1S_rPHcm9R6PSDVk1h-143" value="95" style="text;html=1;align=center;verticalAlign=middle;whiteSpace=wrap;rounded=0;fontColor=#009900;fontStyle=1;fontSize=20;" parent="Zx1S_rPHcm9R6PSDVk1h-30" vertex="1">
          <mxGeometry x="30" y="10" width="60" height="30" as="geometry" />
        </mxCell>
        <mxCell id="Zx1S_rPHcm9R6PSDVk1h-33" value="" style="group" parent="1" vertex="1" connectable="0">
          <mxGeometry x="410" y="260" width="90" height="80" as="geometry" />
        </mxCell>
        <mxCell id="Zx1S_rPHcm9R6PSDVk1h-34" value="" style="shape=lineEllipse;line=vertical;perimeter=ellipsePerimeter;whiteSpace=wrap;html=1;backgroundOutline=1;" parent="Zx1S_rPHcm9R6PSDVk1h-33" vertex="1">
          <mxGeometry width="80" height="80" as="geometry" />
        </mxCell>
        <mxCell id="Zx1S_rPHcm9R6PSDVk1h-35" value="" style="endArrow=none;html=1;rounded=0;" parent="Zx1S_rPHcm9R6PSDVk1h-33" edge="1">
          <mxGeometry width="50" height="50" relative="1" as="geometry">
            <mxPoint x="40" y="39.5" as="sourcePoint" />
            <mxPoint x="80" y="40" as="targetPoint" />
          </mxGeometry>
        </mxCell>
        <mxCell id="Zx1S_rPHcm9R6PSDVk1h-91" value="F" style="text;html=1;align=center;verticalAlign=middle;whiteSpace=wrap;rounded=0;" parent="Zx1S_rPHcm9R6PSDVk1h-33" vertex="1">
          <mxGeometry x="-10" y="25" width="60" height="30" as="geometry" />
        </mxCell>
        <mxCell id="Zx1S_rPHcm9R6PSDVk1h-107" value="15" style="text;html=1;align=center;verticalAlign=middle;whiteSpace=wrap;rounded=0;fontColor=#f92f2f;fontStyle=1;fontSize=20;" parent="Zx1S_rPHcm9R6PSDVk1h-33" vertex="1">
          <mxGeometry x="30" y="40" width="60" height="30" as="geometry" />
        </mxCell>
        <mxCell id="Zx1S_rPHcm9R6PSDVk1h-139" value="15" style="text;html=1;align=center;verticalAlign=middle;whiteSpace=wrap;rounded=0;fontColor=#009900;fontStyle=1;fontSize=20;" parent="Zx1S_rPHcm9R6PSDVk1h-33" vertex="1">
          <mxGeometry x="30" y="10" width="60" height="30" as="geometry" />
        </mxCell>
        <mxCell id="Zx1S_rPHcm9R6PSDVk1h-36" value="" style="group" parent="1" vertex="1" connectable="0">
          <mxGeometry x="720" y="310" width="90" height="80" as="geometry" />
        </mxCell>
        <mxCell id="Zx1S_rPHcm9R6PSDVk1h-37" value="" style="shape=lineEllipse;line=vertical;perimeter=ellipsePerimeter;whiteSpace=wrap;html=1;backgroundOutline=1;" parent="Zx1S_rPHcm9R6PSDVk1h-36" vertex="1">
          <mxGeometry width="80" height="80" as="geometry" />
        </mxCell>
        <mxCell id="Zx1S_rPHcm9R6PSDVk1h-38" value="" style="endArrow=none;html=1;rounded=0;" parent="Zx1S_rPHcm9R6PSDVk1h-36" edge="1">
          <mxGeometry width="50" height="50" relative="1" as="geometry">
            <mxPoint x="40" y="39.5" as="sourcePoint" />
            <mxPoint x="80" y="40" as="targetPoint" />
          </mxGeometry>
        </mxCell>
        <mxCell id="Zx1S_rPHcm9R6PSDVk1h-97" value="L" style="text;html=1;align=center;verticalAlign=middle;whiteSpace=wrap;rounded=0;" parent="Zx1S_rPHcm9R6PSDVk1h-36" vertex="1">
          <mxGeometry x="-10" y="25" width="60" height="30" as="geometry" />
        </mxCell>
        <mxCell id="Zx1S_rPHcm9R6PSDVk1h-115" value="55" style="text;html=1;align=center;verticalAlign=middle;whiteSpace=wrap;rounded=0;fontColor=#f92f2f;fontStyle=1;fontSize=20;" parent="Zx1S_rPHcm9R6PSDVk1h-36" vertex="1">
          <mxGeometry x="30" y="40" width="60" height="30" as="geometry" />
        </mxCell>
        <mxCell id="Zx1S_rPHcm9R6PSDVk1h-141" value="55" style="text;html=1;align=center;verticalAlign=middle;whiteSpace=wrap;rounded=0;fontColor=#009900;fontStyle=1;fontSize=20;" parent="Zx1S_rPHcm9R6PSDVk1h-36" vertex="1">
          <mxGeometry x="40" y="10" width="30" height="10" as="geometry" />
        </mxCell>
        <mxCell id="Zx1S_rPHcm9R6PSDVk1h-39" value="" style="group" parent="1" vertex="1" connectable="0">
          <mxGeometry x="720" y="170" width="90" height="80" as="geometry" />
        </mxCell>
        <mxCell id="Zx1S_rPHcm9R6PSDVk1h-40" value="" style="shape=lineEllipse;line=vertical;perimeter=ellipsePerimeter;whiteSpace=wrap;html=1;backgroundOutline=1;" parent="Zx1S_rPHcm9R6PSDVk1h-39" vertex="1">
          <mxGeometry width="80" height="80" as="geometry" />
        </mxCell>
        <mxCell id="Zx1S_rPHcm9R6PSDVk1h-41" value="" style="endArrow=none;html=1;rounded=0;" parent="Zx1S_rPHcm9R6PSDVk1h-39" edge="1">
          <mxGeometry width="50" height="50" relative="1" as="geometry">
            <mxPoint x="40" y="39.5" as="sourcePoint" />
            <mxPoint x="80" y="40" as="targetPoint" />
          </mxGeometry>
        </mxCell>
        <mxCell id="Zx1S_rPHcm9R6PSDVk1h-96" value="K" style="text;html=1;align=center;verticalAlign=middle;whiteSpace=wrap;rounded=0;" parent="Zx1S_rPHcm9R6PSDVk1h-39" vertex="1">
          <mxGeometry x="-10" y="25" width="60" height="30" as="geometry" />
        </mxCell>
        <mxCell id="Zx1S_rPHcm9R6PSDVk1h-110" value="26" style="text;html=1;align=center;verticalAlign=middle;whiteSpace=wrap;rounded=0;fontColor=#f92f2f;fontStyle=1;fontSize=20;" parent="Zx1S_rPHcm9R6PSDVk1h-39" vertex="1">
          <mxGeometry x="30" y="40" width="60" height="30" as="geometry" />
        </mxCell>
        <mxCell id="Zx1S_rPHcm9R6PSDVk1h-177" value="83" style="text;html=1;align=center;verticalAlign=middle;whiteSpace=wrap;rounded=0;fontColor=#009900;fontStyle=1;fontSize=20;" parent="Zx1S_rPHcm9R6PSDVk1h-39" vertex="1">
          <mxGeometry x="30" y="10" width="60" height="30" as="geometry" />
        </mxCell>
        <mxCell id="Zx1S_rPHcm9R6PSDVk1h-42" value="" style="group" parent="1" vertex="1" connectable="0">
          <mxGeometry x="720" y="60" width="90" height="80" as="geometry" />
        </mxCell>
        <mxCell id="Zx1S_rPHcm9R6PSDVk1h-43" value="" style="shape=lineEllipse;line=vertical;perimeter=ellipsePerimeter;whiteSpace=wrap;html=1;backgroundOutline=1;" parent="Zx1S_rPHcm9R6PSDVk1h-42" vertex="1">
          <mxGeometry width="80" height="80" as="geometry" />
        </mxCell>
        <mxCell id="Zx1S_rPHcm9R6PSDVk1h-44" value="" style="endArrow=none;html=1;rounded=0;" parent="Zx1S_rPHcm9R6PSDVk1h-42" edge="1">
          <mxGeometry width="50" height="50" relative="1" as="geometry">
            <mxPoint x="40" y="39.5" as="sourcePoint" />
            <mxPoint x="80" y="40" as="targetPoint" />
          </mxGeometry>
        </mxCell>
        <mxCell id="Zx1S_rPHcm9R6PSDVk1h-95" value="J" style="text;html=1;align=center;verticalAlign=middle;whiteSpace=wrap;rounded=0;" parent="Zx1S_rPHcm9R6PSDVk1h-42" vertex="1">
          <mxGeometry x="-10" y="25" width="60" height="30" as="geometry" />
        </mxCell>
        <mxCell id="Zx1S_rPHcm9R6PSDVk1h-116" value="27" style="text;html=1;align=center;verticalAlign=middle;whiteSpace=wrap;rounded=0;fontColor=#f92f2f;fontStyle=1;fontSize=20;" parent="Zx1S_rPHcm9R6PSDVk1h-42" vertex="1">
          <mxGeometry x="30" y="40" width="60" height="30" as="geometry" />
        </mxCell>
        <mxCell id="Zx1S_rPHcm9R6PSDVk1h-178" value="83" style="text;html=1;align=center;verticalAlign=middle;whiteSpace=wrap;rounded=0;fontColor=#009900;fontStyle=1;fontSize=20;" parent="Zx1S_rPHcm9R6PSDVk1h-42" vertex="1">
          <mxGeometry x="30" y="10" width="60" height="30" as="geometry" />
        </mxCell>
        <mxCell id="Zx1S_rPHcm9R6PSDVk1h-45" value="" style="endArrow=classic;html=1;rounded=0;entryX=0;entryY=0.5;entryDx=0;entryDy=0;" parent="1" target="Zx1S_rPHcm9R6PSDVk1h-7" edge="1">
          <mxGeometry width="50" height="50" relative="1" as="geometry">
            <mxPoint x="90" y="240" as="sourcePoint" />
            <mxPoint x="140" y="190" as="targetPoint" />
          </mxGeometry>
        </mxCell>
        <mxCell id="Zx1S_rPHcm9R6PSDVk1h-47" value="T1" style="text;html=1;align=center;verticalAlign=middle;whiteSpace=wrap;rounded=0;" parent="1" vertex="1">
          <mxGeometry x="90" y="170" width="60" height="30" as="geometry" />
        </mxCell>
        <mxCell id="Zx1S_rPHcm9R6PSDVk1h-48" value="T2" style="text;html=1;align=center;verticalAlign=middle;whiteSpace=wrap;rounded=0;" parent="1" vertex="1">
          <mxGeometry x="90" y="280" width="60" height="30" as="geometry" />
        </mxCell>
        <mxCell id="Zx1S_rPHcm9R6PSDVk1h-49" value="" style="endArrow=classic;html=1;rounded=0;entryX=0.167;entryY=0.5;entryDx=0;entryDy=0;entryPerimeter=0;" parent="1" target="Zx1S_rPHcm9R6PSDVk1h-89" edge="1">
          <mxGeometry width="50" height="50" relative="1" as="geometry">
            <mxPoint x="250" y="160" as="sourcePoint" />
            <mxPoint x="330" y="160" as="targetPoint" />
          </mxGeometry>
        </mxCell>
        <mxCell id="Zx1S_rPHcm9R6PSDVk1h-50" value="T3" style="text;html=1;align=center;verticalAlign=middle;whiteSpace=wrap;rounded=0;" parent="1" vertex="1">
          <mxGeometry x="250" y="130" width="60" height="30" as="geometry" />
        </mxCell>
        <mxCell id="Zx1S_rPHcm9R6PSDVk1h-51" value="" style="endArrow=classic;html=1;rounded=0;entryX=0;entryY=0.5;entryDx=0;entryDy=0;" parent="1" target="Zx1S_rPHcm9R6PSDVk1h-34" edge="1">
          <mxGeometry width="50" height="50" relative="1" as="geometry">
            <mxPoint x="250" y="320" as="sourcePoint" />
            <mxPoint x="330" y="270" as="targetPoint" />
          </mxGeometry>
        </mxCell>
        <mxCell id="Zx1S_rPHcm9R6PSDVk1h-52" value="" style="endArrow=classic;html=1;rounded=0;exitX=1;exitY=0.5;exitDx=0;exitDy=0;entryX=0;entryY=0.5;entryDx=0;entryDy=0;" parent="1" source="Zx1S_rPHcm9R6PSDVk1h-10" target="Zx1S_rPHcm9R6PSDVk1h-16" edge="1">
          <mxGeometry width="50" height="50" relative="1" as="geometry">
            <mxPoint x="360" y="340" as="sourcePoint" />
            <mxPoint x="330" y="380" as="targetPoint" />
          </mxGeometry>
        </mxCell>
        <mxCell id="Zx1S_rPHcm9R6PSDVk1h-53" value="T4" style="text;html=1;align=center;verticalAlign=middle;whiteSpace=wrap;rounded=0;" parent="1" vertex="1">
          <mxGeometry x="270" y="280" width="60" height="30" as="geometry" />
        </mxCell>
        <mxCell id="Zx1S_rPHcm9R6PSDVk1h-56" value="T5" style="text;html=1;align=center;verticalAlign=middle;whiteSpace=wrap;rounded=0;" parent="1" vertex="1">
          <mxGeometry x="250" y="350" width="60" height="30" as="geometry" />
        </mxCell>
        <mxCell id="Zx1S_rPHcm9R6PSDVk1h-58" value="" style="endArrow=classic;html=1;rounded=0;exitX=1;exitY=0.5;exitDx=0;exitDy=0;entryX=0;entryY=0.5;entryDx=0;entryDy=0;" parent="1" source="Zx1S_rPHcm9R6PSDVk1h-16" target="Zx1S_rPHcm9R6PSDVk1h-25" edge="1">
          <mxGeometry width="50" height="50" relative="1" as="geometry">
            <mxPoint x="425" y="390" as="sourcePoint" />
            <mxPoint x="490" y="380" as="targetPoint" />
          </mxGeometry>
        </mxCell>
        <mxCell id="Zx1S_rPHcm9R6PSDVk1h-60" value="" style="endArrow=classic;html=1;rounded=0;entryX=0;entryY=0.5;entryDx=0;entryDy=0;" parent="1" target="Zx1S_rPHcm9R6PSDVk1h-22" edge="1">
          <mxGeometry width="50" height="50" relative="1" as="geometry">
            <mxPoint x="495" y="160" as="sourcePoint" />
            <mxPoint x="490" y="160" as="targetPoint" />
          </mxGeometry>
        </mxCell>
        <mxCell id="Zx1S_rPHcm9R6PSDVk1h-61" value="T8" style="text;html=1;align=center;verticalAlign=middle;whiteSpace=wrap;rounded=0;" parent="1" vertex="1">
          <mxGeometry x="480" y="130" width="60" height="30" as="geometry" />
        </mxCell>
        <mxCell id="Zx1S_rPHcm9R6PSDVk1h-62" value="" style="endArrow=classic;html=1;rounded=0;exitX=1;exitY=0.5;exitDx=0;exitDy=0;entryX=0;entryY=0.5;entryDx=0;entryDy=0;" parent="1" source="Zx1S_rPHcm9R6PSDVk1h-34" target="Zx1S_rPHcm9R6PSDVk1h-19" edge="1">
          <mxGeometry width="50" height="50" relative="1" as="geometry">
            <mxPoint x="520" y="300" as="sourcePoint" />
            <mxPoint x="570" y="280" as="targetPoint" />
          </mxGeometry>
        </mxCell>
        <mxCell id="Zx1S_rPHcm9R6PSDVk1h-63" value="T6" style="text;html=1;align=center;verticalAlign=middle;whiteSpace=wrap;rounded=0;" parent="1" vertex="1">
          <mxGeometry x="480" y="260" width="60" height="30" as="geometry" />
        </mxCell>
        <mxCell id="Zx1S_rPHcm9R6PSDVk1h-64" value="" style="endArrow=classic;html=1;rounded=0;dashed=1;entryX=0.5;entryY=0;entryDx=0;entryDy=0;exitX=0.25;exitY=0;exitDx=0;exitDy=0;" parent="1" source="Zx1S_rPHcm9R6PSDVk1h-65" target="Zx1S_rPHcm9R6PSDVk1h-34" edge="1">
          <mxGeometry width="50" height="50" relative="1" as="geometry">
            <mxPoint x="370" y="200" as="sourcePoint" />
            <mxPoint x="310" y="190" as="targetPoint" />
          </mxGeometry>
        </mxCell>
        <mxCell id="Zx1S_rPHcm9R6PSDVk1h-65" value="T&#39;" style="text;html=1;align=center;verticalAlign=middle;whiteSpace=wrap;rounded=0;" parent="1" vertex="1">
          <mxGeometry x="434" y="200" width="60" height="30" as="geometry" />
        </mxCell>
        <mxCell id="Zx1S_rPHcm9R6PSDVk1h-66" value="" style="endArrow=classic;html=1;rounded=0;entryX=0;entryY=0.5;entryDx=0;entryDy=0;" parent="1" target="Zx1S_rPHcm9R6PSDVk1h-43" edge="1">
          <mxGeometry width="50" height="50" relative="1" as="geometry">
            <mxPoint x="650" y="160" as="sourcePoint" />
            <mxPoint x="760" y="140" as="targetPoint" />
          </mxGeometry>
        </mxCell>
        <mxCell id="Zx1S_rPHcm9R6PSDVk1h-67" value="" style="endArrow=classic;html=1;rounded=0;entryX=0;entryY=0.5;entryDx=0;entryDy=0;" parent="1" target="Zx1S_rPHcm9R6PSDVk1h-40" edge="1">
          <mxGeometry width="50" height="50" relative="1" as="geometry">
            <mxPoint x="650" y="160" as="sourcePoint" />
            <mxPoint x="760" y="220" as="targetPoint" />
          </mxGeometry>
        </mxCell>
        <mxCell id="Zx1S_rPHcm9R6PSDVk1h-68" value="T9" style="text;html=1;align=center;verticalAlign=middle;whiteSpace=wrap;rounded=0;" parent="1" vertex="1">
          <mxGeometry x="640" y="85" width="60" height="30" as="geometry" />
        </mxCell>
        <mxCell id="Zx1S_rPHcm9R6PSDVk1h-69" value="T10" style="text;html=1;align=center;verticalAlign=middle;whiteSpace=wrap;rounded=0;" parent="1" vertex="1">
          <mxGeometry x="655" y="185" width="30" height="30" as="geometry" />
        </mxCell>
        <mxCell id="Zx1S_rPHcm9R6PSDVk1h-71" value="" style="endArrow=classic;html=1;rounded=0;exitX=0.5;exitY=0;exitDx=0;exitDy=0;dashed=1;entryX=0.5;entryY=1;entryDx=0;entryDy=0;" parent="1" source="Zx1S_rPHcm9R6PSDVk1h-25" target="Zx1S_rPHcm9R6PSDVk1h-19" edge="1">
          <mxGeometry width="50" height="50" relative="1" as="geometry">
            <mxPoint x="670" y="460" as="sourcePoint" />
            <mxPoint x="840" y="300" as="targetPoint" />
          </mxGeometry>
        </mxCell>
        <mxCell id="Zx1S_rPHcm9R6PSDVk1h-72" value="" style="endArrow=classic;html=1;rounded=0;exitX=1;exitY=0.5;exitDx=0;exitDy=0;entryX=0;entryY=0.5;entryDx=0;entryDy=0;" parent="1" source="Zx1S_rPHcm9R6PSDVk1h-19" target="Zx1S_rPHcm9R6PSDVk1h-37" edge="1">
          <mxGeometry width="50" height="50" relative="1" as="geometry">
            <mxPoint x="800" y="340" as="sourcePoint" />
            <mxPoint x="720" y="320" as="targetPoint" />
          </mxGeometry>
        </mxCell>
        <mxCell id="Zx1S_rPHcm9R6PSDVk1h-74" value="T11" style="text;html=1;align=center;verticalAlign=middle;whiteSpace=wrap;rounded=0;" parent="1" vertex="1">
          <mxGeometry x="660" y="335" width="30" height="30" as="geometry" />
        </mxCell>
        <mxCell id="Zx1S_rPHcm9R6PSDVk1h-75" value="" style="endArrow=classic;html=1;rounded=0;exitX=1;exitY=0.5;exitDx=0;exitDy=0;entryX=0;entryY=0.5;entryDx=0;entryDy=0;" parent="1" source="Zx1S_rPHcm9R6PSDVk1h-37" target="Zx1S_rPHcm9R6PSDVk1h-13" edge="1">
          <mxGeometry width="50" height="50" relative="1" as="geometry">
            <mxPoint x="850" y="380" as="sourcePoint" />
            <mxPoint x="920" y="380" as="targetPoint" />
          </mxGeometry>
        </mxCell>
        <mxCell id="Zx1S_rPHcm9R6PSDVk1h-76" value="T12" style="text;html=1;align=center;verticalAlign=middle;whiteSpace=wrap;rounded=0;" parent="1" vertex="1">
          <mxGeometry x="810" y="320" width="60" height="30" as="geometry" />
        </mxCell>
        <mxCell id="Zx1S_rPHcm9R6PSDVk1h-77" value="" style="endArrow=classic;html=1;rounded=0;entryX=0;entryY=0.5;entryDx=0;entryDy=0;exitX=1;exitY=0.5;exitDx=0;exitDy=0;" parent="1" source="Zx1S_rPHcm9R6PSDVk1h-13" target="Zx1S_rPHcm9R6PSDVk1h-31" edge="1">
          <mxGeometry width="50" height="50" relative="1" as="geometry">
            <mxPoint x="1000" y="380" as="sourcePoint" />
            <mxPoint x="1250" y="380" as="targetPoint" />
          </mxGeometry>
        </mxCell>
        <mxCell id="Zx1S_rPHcm9R6PSDVk1h-78" value="T14" style="text;html=1;align=center;verticalAlign=middle;whiteSpace=wrap;rounded=0;" parent="1" vertex="1">
          <mxGeometry x="1050" y="320" width="60" height="30" as="geometry" />
        </mxCell>
        <mxCell id="Zx1S_rPHcm9R6PSDVk1h-84" value="T13" style="text;html=1;align=center;verticalAlign=middle;whiteSpace=wrap;rounded=0;" parent="1" vertex="1">
          <mxGeometry x="807" y="160" width="40" height="30" as="geometry" />
        </mxCell>
        <mxCell id="Zx1S_rPHcm9R6PSDVk1h-118" value="&lt;font color=&quot;#0000ff&quot;&gt;5&lt;/font&gt;" style="text;html=1;align=center;verticalAlign=middle;whiteSpace=wrap;rounded=0;" parent="1" vertex="1">
          <mxGeometry x="110" y="160" width="60" height="30" as="geometry" />
        </mxCell>
        <mxCell id="Zx1S_rPHcm9R6PSDVk1h-120" value="&lt;font color=&quot;#0000ff&quot;&gt;8&lt;/font&gt;" style="text;html=1;align=center;verticalAlign=middle;whiteSpace=wrap;rounded=0;" parent="1" vertex="1">
          <mxGeometry x="290" y="275" width="60" height="30" as="geometry" />
        </mxCell>
        <mxCell id="Zx1S_rPHcm9R6PSDVk1h-121" value="&lt;font color=&quot;#0000ff&quot;&gt;4&lt;/font&gt;" style="text;html=1;align=center;verticalAlign=middle;whiteSpace=wrap;rounded=0;" parent="1" vertex="1">
          <mxGeometry x="510" y="410" width="60" height="30" as="geometry" />
        </mxCell>
        <mxCell id="Zx1S_rPHcm9R6PSDVk1h-122" value="&lt;font color=&quot;#0000ff&quot;&gt;10&lt;/font&gt;" style="text;html=1;align=center;verticalAlign=middle;whiteSpace=wrap;rounded=0;" parent="1" vertex="1">
          <mxGeometry x="260" y="365" width="60" height="30" as="geometry" />
        </mxCell>
        <mxCell id="Zx1S_rPHcm9R6PSDVk1h-123" value="&lt;font color=&quot;#0000ff&quot;&gt;10&lt;/font&gt;" style="text;html=1;align=center;verticalAlign=middle;whiteSpace=wrap;rounded=0;" parent="1" vertex="1">
          <mxGeometry x="280" y="130" width="60" height="30" as="geometry" />
        </mxCell>
        <mxCell id="Zx1S_rPHcm9R6PSDVk1h-124" value="&lt;font color=&quot;#0000ff&quot;&gt;30&lt;/font&gt;" style="text;html=1;align=center;verticalAlign=middle;whiteSpace=wrap;rounded=0;" parent="1" vertex="1">
          <mxGeometry x="1080" y="320" width="60" height="30" as="geometry" />
        </mxCell>
        <mxCell id="Zx1S_rPHcm9R6PSDVk1h-125" value="&lt;font color=&quot;#0000ff&quot;&gt;25&lt;/font&gt;" style="text;html=1;align=center;verticalAlign=middle;whiteSpace=wrap;rounded=0;" parent="1" vertex="1">
          <mxGeometry x="500" y="260" width="60" height="30" as="geometry" />
        </mxCell>
        <mxCell id="Zx1S_rPHcm9R6PSDVk1h-126" value="&lt;font color=&quot;#0000ff&quot;&gt;10&lt;/font&gt;" style="text;html=1;align=center;verticalAlign=middle;whiteSpace=wrap;rounded=0;" parent="1" vertex="1">
          <mxGeometry x="510" y="130" width="60" height="30" as="geometry" />
        </mxCell>
        <mxCell id="Zx1S_rPHcm9R6PSDVk1h-127" value="&lt;font color=&quot;#0000ff&quot;&gt;15&lt;/font&gt;" style="text;html=1;align=center;verticalAlign=middle;whiteSpace=wrap;rounded=0;" parent="1" vertex="1">
          <mxGeometry x="677.5" y="350" width="25" height="30" as="geometry" />
        </mxCell>
        <mxCell id="Zx1S_rPHcm9R6PSDVk1h-128" value="&lt;font color=&quot;#0000ff&quot;&gt;1&lt;/font&gt;" style="text;html=1;align=center;verticalAlign=middle;whiteSpace=wrap;rounded=0;" parent="1" vertex="1">
          <mxGeometry x="675" y="185" width="30" height="30" as="geometry" />
        </mxCell>
        <mxCell id="Zx1S_rPHcm9R6PSDVk1h-129" value="&lt;font color=&quot;#0000ff&quot;&gt;2&lt;/font&gt;" style="text;html=1;align=center;verticalAlign=middle;whiteSpace=wrap;rounded=0;" parent="1" vertex="1">
          <mxGeometry x="660" y="85" width="60" height="30" as="geometry" />
        </mxCell>
        <mxCell id="Zx1S_rPHcm9R6PSDVk1h-130" value="&lt;font color=&quot;#0000ff&quot;&gt;10&lt;/font&gt;" style="text;html=1;align=center;verticalAlign=middle;whiteSpace=wrap;rounded=0;" parent="1" vertex="1">
          <mxGeometry x="850" y="320" width="30" height="30" as="geometry" />
        </mxCell>
        <mxCell id="Zx1S_rPHcm9R6PSDVk1h-131" value="" style="endArrow=classic;html=1;rounded=0;exitX=1;exitY=0.5;exitDx=0;exitDy=0;entryX=0.167;entryY=0.5;entryDx=0;entryDy=0;entryPerimeter=0;" parent="1" source="Zx1S_rPHcm9R6PSDVk1h-1" target="Zx1S_rPHcm9R6PSDVk1h-88" edge="1">
          <mxGeometry width="50" height="50" relative="1" as="geometry">
            <mxPoint x="90" y="240" as="sourcePoint" />
            <mxPoint x="170" y="320" as="targetPoint" />
          </mxGeometry>
        </mxCell>
        <mxCell id="Zx1S_rPHcm9R6PSDVk1h-119" value="&lt;font color=&quot;#0000ff&quot;&gt;2&lt;/font&gt;" style="text;html=1;align=center;verticalAlign=middle;whiteSpace=wrap;rounded=0;" parent="1" vertex="1">
          <mxGeometry x="100" y="305" width="60" height="30" as="geometry" />
        </mxCell>
        <mxCell id="Zx1S_rPHcm9R6PSDVk1h-133" value="&lt;font color=&quot;#0000ff&quot;&gt;12&lt;/font&gt;" style="text;html=1;align=center;verticalAlign=middle;whiteSpace=wrap;rounded=0;" parent="1" vertex="1">
          <mxGeometry x="835" y="160" width="35" height="30" as="geometry" />
        </mxCell>
        <mxCell id="Zx1S_rPHcm9R6PSDVk1h-150" value="" style="endArrow=none;html=1;rounded=0;strokeColor=#994C00;strokeWidth=5;opacity=40;" parent="1" source="ORaUHs7VcjH8jRzuI9Ud-1" edge="1">
          <mxGeometry width="50" height="50" relative="1" as="geometry">
            <mxPoint x="119" y="490" as="sourcePoint" />
            <mxPoint x="119.41" as="targetPoint" />
          </mxGeometry>
        </mxCell>
        <mxCell id="Zx1S_rPHcm9R6PSDVk1h-151" value="" style="endArrow=none;html=1;rounded=0;strokeColor=#994C00;strokeWidth=4;opacity=40;" parent="1" source="ORaUHs7VcjH8jRzuI9Ud-5" edge="1">
          <mxGeometry width="50" height="50" relative="1" as="geometry">
            <mxPoint x="320" y="500" as="sourcePoint" />
            <mxPoint x="320.40999999999997" as="targetPoint" />
          </mxGeometry>
        </mxCell>
        <mxCell id="Zx1S_rPHcm9R6PSDVk1h-59" value="T7" style="text;html=1;align=center;verticalAlign=middle;whiteSpace=wrap;rounded=0;" parent="1" vertex="1">
          <mxGeometry x="480" y="410" width="60" height="30" as="geometry" />
        </mxCell>
        <mxCell id="Zx1S_rPHcm9R6PSDVk1h-158" value="" style="endArrow=classic;html=1;rounded=0;exitX=0.5;exitY=1;exitDx=0;exitDy=0;dashed=1;entryX=0.5;entryY=0;entryDx=0;entryDy=0;" parent="1" source="Zx1S_rPHcm9R6PSDVk1h-22" target="Zx1S_rPHcm9R6PSDVk1h-19" edge="1">
          <mxGeometry width="50" height="50" relative="1" as="geometry">
            <mxPoint x="660" y="275" as="sourcePoint" />
            <mxPoint x="660" y="215" as="targetPoint" />
          </mxGeometry>
        </mxCell>
        <mxCell id="Zx1S_rPHcm9R6PSDVk1h-162" value="" style="group" parent="1" vertex="1" connectable="0">
          <mxGeometry x="940" y="120" width="90" height="80" as="geometry" />
        </mxCell>
        <mxCell id="Zx1S_rPHcm9R6PSDVk1h-163" value="" style="shape=lineEllipse;line=vertical;perimeter=ellipsePerimeter;whiteSpace=wrap;html=1;backgroundOutline=1;" parent="Zx1S_rPHcm9R6PSDVk1h-162" vertex="1">
          <mxGeometry width="80" height="80" as="geometry" />
        </mxCell>
        <mxCell id="Zx1S_rPHcm9R6PSDVk1h-164" value="" style="endArrow=none;html=1;rounded=0;" parent="Zx1S_rPHcm9R6PSDVk1h-162" edge="1">
          <mxGeometry width="50" height="50" relative="1" as="geometry">
            <mxPoint x="40" y="39.5" as="sourcePoint" />
            <mxPoint x="80" y="40" as="targetPoint" />
          </mxGeometry>
        </mxCell>
        <mxCell id="Zx1S_rPHcm9R6PSDVk1h-165" value="M" style="text;html=1;align=center;verticalAlign=middle;whiteSpace=wrap;rounded=0;" parent="Zx1S_rPHcm9R6PSDVk1h-162" vertex="1">
          <mxGeometry x="-10" y="25" width="60" height="30" as="geometry" />
        </mxCell>
        <mxCell id="Zx1S_rPHcm9R6PSDVk1h-166" value="67" style="text;html=1;align=center;verticalAlign=middle;whiteSpace=wrap;rounded=0;fontColor=#f92f2f;fontStyle=1;fontSize=20;" parent="Zx1S_rPHcm9R6PSDVk1h-162" vertex="1">
          <mxGeometry x="30" y="40" width="60" height="30" as="geometry" />
        </mxCell>
        <mxCell id="Zx1S_rPHcm9R6PSDVk1h-167" value="95" style="text;html=1;align=center;verticalAlign=middle;whiteSpace=wrap;rounded=0;fontColor=#009900;fontStyle=1;fontSize=20;" parent="Zx1S_rPHcm9R6PSDVk1h-162" vertex="1">
          <mxGeometry x="45" y="10" width="30" height="30" as="geometry" />
        </mxCell>
        <mxCell id="Zx1S_rPHcm9R6PSDVk1h-168" value="" style="endArrow=classic;html=1;rounded=0;exitX=1;exitY=0.5;exitDx=0;exitDy=0;entryX=0;entryY=0.5;entryDx=0;entryDy=0;" parent="1" source="Zx1S_rPHcm9R6PSDVk1h-40" target="Zx1S_rPHcm9R6PSDVk1h-163" edge="1">
          <mxGeometry width="50" height="50" relative="1" as="geometry">
            <mxPoint x="830" y="280" as="sourcePoint" />
            <mxPoint x="900" y="170" as="targetPoint" />
          </mxGeometry>
        </mxCell>
        <mxCell id="Zx1S_rPHcm9R6PSDVk1h-169" value="" style="endArrow=classic;html=1;rounded=0;dashed=1;exitX=0.5;exitY=0;exitDx=0;exitDy=0;entryX=0.5;entryY=1;entryDx=0;entryDy=0;" parent="1" source="Zx1S_rPHcm9R6PSDVk1h-37" target="Zx1S_rPHcm9R6PSDVk1h-40" edge="1">
          <mxGeometry width="50" height="50" relative="1" as="geometry">
            <mxPoint x="800" y="350" as="sourcePoint" />
            <mxPoint x="760" y="260" as="targetPoint" />
          </mxGeometry>
        </mxCell>
        <mxCell id="Zx1S_rPHcm9R6PSDVk1h-170" value="" style="endArrow=classic;html=1;rounded=0;exitX=0.5;exitY=1;exitDx=0;exitDy=0;dashed=1;" parent="1" source="Zx1S_rPHcm9R6PSDVk1h-43" edge="1">
          <mxGeometry width="50" height="50" relative="1" as="geometry">
            <mxPoint x="850" y="115" as="sourcePoint" />
            <mxPoint x="760" y="170" as="targetPoint" />
          </mxGeometry>
        </mxCell>
        <mxCell id="Zx1S_rPHcm9R6PSDVk1h-173" value="" style="endArrow=none;html=1;rounded=0;strokeColor=#994C00;strokeWidth=4;opacity=40;" parent="1" source="ORaUHs7VcjH8jRzuI9Ud-10" edge="1">
          <mxGeometry width="50" height="50" relative="1" as="geometry">
            <mxPoint x="1080" y="500" as="sourcePoint" />
            <mxPoint x="1080" as="targetPoint" />
          </mxGeometry>
        </mxCell>
        <mxCell id="Zx1S_rPHcm9R6PSDVk1h-179" value="&lt;font style=&quot;font-size: 24px;&quot;&gt;&lt;b&gt;5+10+25+15+10+30=95&lt;/b&gt;&lt;/font&gt;" style="text;html=1;align=center;verticalAlign=middle;whiteSpace=wrap;rounded=0;" parent="1" vertex="1">
          <mxGeometry x="470" y="540" width="230" height="30" as="geometry" />
        </mxCell>
        <mxCell id="ORaUHs7VcjH8jRzuI9Ud-1" value="Rang 1" style="text;html=1;align=center;verticalAlign=middle;whiteSpace=wrap;rounded=0;" parent="1" vertex="1">
          <mxGeometry x="90" y="10" width="60" height="30" as="geometry" />
        </mxCell>
        <mxCell id="ORaUHs7VcjH8jRzuI9Ud-5" value="Rang 2" style="text;html=1;align=center;verticalAlign=middle;whiteSpace=wrap;rounded=0;" parent="1" vertex="1">
          <mxGeometry x="290" y="10" width="60" height="30" as="geometry" />
        </mxCell>
        <mxCell id="ORaUHs7VcjH8jRzuI9Ud-7" value="Rang 3" style="text;html=1;align=center;verticalAlign=middle;whiteSpace=wrap;rounded=0;" parent="1" vertex="1">
          <mxGeometry x="490" y="10" width="60" height="30" as="geometry" />
        </mxCell>
        <mxCell id="ORaUHs7VcjH8jRzuI9Ud-8" value="Rang 4" style="text;html=1;align=center;verticalAlign=middle;whiteSpace=wrap;rounded=0;" parent="1" vertex="1">
          <mxGeometry x="655" y="10" width="60" height="30" as="geometry" />
        </mxCell>
        <mxCell id="ORaUHs7VcjH8jRzuI9Ud-9" value="Rang 5" style="text;html=1;align=center;verticalAlign=middle;whiteSpace=wrap;rounded=0;" parent="1" vertex="1">
          <mxGeometry x="850" y="10" width="60" height="30" as="geometry" />
        </mxCell>
        <mxCell id="ORaUHs7VcjH8jRzuI9Ud-10" value="Rang 6" style="text;html=1;align=center;verticalAlign=middle;whiteSpace=wrap;rounded=0;" parent="1" vertex="1">
          <mxGeometry x="1050" y="10" width="60" height="30" as="geometry" />
        </mxCell>
        <mxCell id="ORaUHs7VcjH8jRzuI9Ud-12" value="" style="endArrow=classic;html=1;rounded=0;exitX=1;exitY=0.5;exitDx=0;exitDy=0;dashed=1;" parent="1" source="Zx1S_rPHcm9R6PSDVk1h-163" edge="1">
          <mxGeometry width="50" height="50" relative="1" as="geometry">
            <mxPoint x="880" y="280" as="sourcePoint" />
            <mxPoint x="1170" y="310" as="targetPoint" />
          </mxGeometry>
        </mxCell>
        <mxCell id="ORaUHs7VcjH8jRzuI9Ud-13" value="" style="curved=1;endArrow=classic;html=1;rounded=0;strokeColor=#FF0000;strokeWidth=3;" parent="1" edge="1">
          <mxGeometry width="50" height="50" relative="1" as="geometry">
            <mxPoint x="40" y="185" as="sourcePoint" />
            <mxPoint x="470" y="250" as="targetPoint" />
            <Array as="points">
              <mxPoint x="90" y="185" />
              <mxPoint x="240" y="60" />
              <mxPoint x="310" y="220" />
            </Array>
          </mxGeometry>
        </mxCell>
        <mxCell id="ORaUHs7VcjH8jRzuI9Ud-14" value="" style="curved=1;endArrow=classic;html=1;rounded=0;strokeColor=#FF0000;strokeWidth=3;" parent="1" edge="1">
          <mxGeometry width="50" height="50" relative="1" as="geometry">
            <mxPoint x="470" y="250" as="sourcePoint" />
            <mxPoint x="1150" y="310" as="targetPoint" />
            <Array as="points">
              <mxPoint x="520" y="250" />
              <mxPoint x="630" y="240" />
              <mxPoint x="760" y="310" />
              <mxPoint x="890" y="300" />
            </Array>
          </mxGeometry>
        </mxCell>
        <mxCell id="ORaUHs7VcjH8jRzuI9Ud-15" value="21/10/2024" style="text;html=1;align=center;verticalAlign=middle;whiteSpace=wrap;rounded=0;" parent="1" vertex="1">
          <mxGeometry x="30" y="280" width="60" height="30" as="geometry" />
        </mxCell>
        <mxCell id="ORaUHs7VcjH8jRzuI9Ud-18" value="06/03/2025" style="text;html=1;align=center;verticalAlign=middle;whiteSpace=wrap;rounded=0;" parent="1" vertex="1">
          <mxGeometry x="1200" y="395" width="60" height="30" as="geometry" />
        </mxCell>
        <mxCell id="ORaUHs7VcjH8jRzuI9Ud-19" value="&lt;font color=&quot;#ff8000&quot; style=&quot;font-size: 14px;&quot;&gt;&lt;b style=&quot;&quot;&gt;0&lt;/b&gt;&lt;/font&gt;" style="text;html=1;align=center;verticalAlign=middle;whiteSpace=wrap;rounded=0;" parent="1" vertex="1">
          <mxGeometry x="120" y="195" width="30" height="25" as="geometry" />
        </mxCell>
        <mxCell id="ORaUHs7VcjH8jRzuI9Ud-20" value="&lt;font color=&quot;#ff8000&quot; style=&quot;font-size: 14px;&quot;&gt;&lt;b style=&quot;&quot;&gt;5&lt;/b&gt;&lt;/font&gt;" style="text;html=1;align=center;verticalAlign=middle;whiteSpace=wrap;rounded=0;" parent="1" vertex="1">
          <mxGeometry x="330" y="282.5" width="30" height="25" as="geometry" />
        </mxCell>
        <mxCell id="ORaUHs7VcjH8jRzuI9Ud-21" value="&lt;font style=&quot;font-size: 14px;&quot;&gt;&lt;b&gt;0&lt;/b&gt;&lt;/font&gt;" style="text;html=1;align=center;verticalAlign=middle;whiteSpace=wrap;rounded=0;fontColor=#FF8000;" parent="1" vertex="1">
          <mxGeometry x="495" y="277.5" width="30" height="25" as="geometry" />
        </mxCell>
        <mxCell id="ORaUHs7VcjH8jRzuI9Ud-23" value="&lt;font style=&quot;font-size: 14px;&quot;&gt;&lt;b&gt;0&lt;/b&gt;&lt;/font&gt;" style="text;html=1;align=center;verticalAlign=middle;whiteSpace=wrap;rounded=0;fontColor=#FF8000;" parent="1" vertex="1">
          <mxGeometry x="655" y="352.5" width="30" height="25" as="geometry" />
        </mxCell>
        <mxCell id="ORaUHs7VcjH8jRzuI9Ud-24" value="&lt;font style=&quot;font-size: 14px;&quot;&gt;&lt;b&gt;0&lt;/b&gt;&lt;/font&gt;" style="text;html=1;align=center;verticalAlign=middle;whiteSpace=wrap;rounded=0;fontColor=#FF8000;" parent="1" vertex="1">
          <mxGeometry x="825" y="355" width="30" height="25" as="geometry" />
        </mxCell>
        <mxCell id="ORaUHs7VcjH8jRzuI9Ud-25" value="&lt;font style=&quot;font-size: 14px;&quot;&gt;&lt;b&gt;0&lt;/b&gt;&lt;/font&gt;" style="text;html=1;align=center;verticalAlign=middle;whiteSpace=wrap;rounded=0;fontColor=#FF8000;" parent="1" vertex="1">
          <mxGeometry x="1080" y="350" width="30" height="25" as="geometry" />
        </mxCell>
        <mxCell id="ORaUHs7VcjH8jRzuI9Ud-26" value="&lt;font color=&quot;#ff8000&quot; style=&quot;font-size: 14px;&quot;&gt;&lt;b style=&quot;&quot;&gt;0&lt;/b&gt;&lt;/font&gt;" style="text;html=1;align=center;verticalAlign=middle;whiteSpace=wrap;rounded=0;" parent="1" vertex="1">
          <mxGeometry x="260" y="165" width="30" height="25" as="geometry" />
        </mxCell>
        <mxCell id="ORaUHs7VcjH8jRzuI9Ud-27" value="&lt;font color=&quot;#ff8000&quot; style=&quot;font-size: 14px;&quot;&gt;&lt;b style=&quot;&quot;&gt;5&lt;/b&gt;&lt;/font&gt;" style="text;html=1;align=center;verticalAlign=middle;whiteSpace=wrap;rounded=0;" parent="1" vertex="1">
          <mxGeometry x="100" y="302.5" width="30" height="25" as="geometry" />
        </mxCell>
        <mxCell id="ORaUHs7VcjH8jRzuI9Ud-28" value="T# : numéro de la tâche" style="text;html=1;align=center;verticalAlign=middle;whiteSpace=wrap;rounded=0;" parent="1" vertex="1">
          <mxGeometry x="40" y="500" width="160" height="30" as="geometry" />
        </mxCell>
        <mxCell id="ORaUHs7VcjH8jRzuI9Ud-30" value="&lt;font color=&quot;#0000ff&quot;&gt;en bleu : durée de la tâche&lt;/font&gt;" style="text;html=1;align=center;verticalAlign=middle;whiteSpace=wrap;rounded=0;" parent="1" vertex="1">
          <mxGeometry x="50" y="530" width="160" height="30" as="geometry" />
        </mxCell>
        <mxCell id="ORaUHs7VcjH8jRzuI9Ud-31" value="&lt;font color=&quot;#ff8000&quot; style=&quot;font-size: 14px;&quot;&gt;&lt;b style=&quot;&quot;&gt;en orange : marge&lt;/b&gt;&lt;/font&gt;" style="text;html=1;align=center;verticalAlign=middle;whiteSpace=wrap;rounded=0;" parent="1" vertex="1">
          <mxGeometry x="50" y="570" width="160" height="25" as="geometry" />
        </mxCell>
        <mxCell id="ORaUHs7VcjH8jRzuI9Ud-32" value="&lt;font color=&quot;#ff8000&quot; style=&quot;font-size: 14px;&quot;&gt;&lt;b style=&quot;&quot;&gt;24&lt;/b&gt;&lt;/font&gt;" style="text;html=1;align=center;verticalAlign=middle;whiteSpace=wrap;rounded=0;" parent="1" vertex="1">
          <mxGeometry x="260" y="370" width="30" height="25" as="geometry" />
        </mxCell>
        <mxCell id="ORaUHs7VcjH8jRzuI9Ud-33" value="&lt;font color=&quot;#ff8000&quot; style=&quot;font-size: 14px;&quot;&gt;&lt;b style=&quot;&quot;&gt;24&lt;/b&gt;&lt;/font&gt;" style="text;html=1;align=center;verticalAlign=middle;whiteSpace=wrap;rounded=0;" parent="1" vertex="1">
          <mxGeometry x="510" y="440" width="30" height="25" as="geometry" />
        </mxCell>
        <mxCell id="ORaUHs7VcjH8jRzuI9Ud-34" value="&lt;font color=&quot;#ff8000&quot; style=&quot;font-size: 14px;&quot;&gt;&lt;b style=&quot;&quot;&gt;15&lt;/b&gt;&lt;/font&gt;" style="text;html=1;align=center;verticalAlign=middle;whiteSpace=wrap;rounded=0;" parent="1" vertex="1">
          <mxGeometry x="505" y="160" width="30" height="25" as="geometry" />
        </mxCell>
        <mxCell id="ORaUHs7VcjH8jRzuI9Ud-35" value="&lt;font color=&quot;#ff8000&quot; style=&quot;font-size: 14px;&quot;&gt;&lt;b style=&quot;&quot;&gt;56&lt;/b&gt;&lt;/font&gt;&lt;span style=&quot;color: rgba(0, 0, 0, 0); font-family: monospace; font-size: 0px; text-align: start; text-wrap: nowrap;&quot;&gt;%3CmxGraphModel%3E%3Croot%3E%3CmxCell%20id%3D%220%22%2F%3E%3CmxCell%20id%3D%221%22%20parent%3D%220%22%2F%3E%3CmxCell%20id%3D%222%22%20value%3D%22%26lt%3Bfont%20color%3D%26quot%3B%23ff8000%26quot%3B%20style%3D%26quot%3Bfont-size%3A%2014px%3B%26quot%3B%26gt%3B%26lt%3Bb%20style%3D%26quot%3B%26quot%3B%26gt%3B24%26lt%3B%2Fb%26gt%3B%26lt%3B%2Ffont%26gt%3B%22%20style%3D%22text%3Bhtml%3D1%3Balign%3Dcenter%3BverticalAlign%3Dmiddle%3BwhiteSpace%3Dwrap%3Brounded%3D0%3B%22%20vertex%3D%221%22%20parent%3D%221%22%3E%3CmxGeometry%20x%3D%22260%22%20y%3D%22370%22%20width%3D%2230%22%20height%3D%2225%22%20as%3D%22geometry%22%2F%3E%3C%2FmxCell%3E%3C%2Froot%3E%3C%2FmxGraphModel%3E&lt;/span&gt;" style="text;html=1;align=center;verticalAlign=middle;whiteSpace=wrap;rounded=0;" parent="1" vertex="1">
          <mxGeometry x="655" y="105" width="30" height="25" as="geometry" />
        </mxCell>
        <mxCell id="ORaUHs7VcjH8jRzuI9Ud-36" value="&lt;font color=&quot;#ff8000&quot; style=&quot;font-size: 14px;&quot;&gt;&lt;b style=&quot;&quot;&gt;57&lt;/b&gt;&lt;/font&gt;" style="text;html=1;align=center;verticalAlign=middle;whiteSpace=wrap;rounded=0;" parent="1" vertex="1">
          <mxGeometry x="670" y="205" width="30" height="25" as="geometry" />
        </mxCell>
        <mxCell id="ORaUHs7VcjH8jRzuI9Ud-37" value="&lt;font color=&quot;#ff8000&quot; style=&quot;font-size: 14px;&quot;&gt;&lt;b style=&quot;&quot;&gt;57&lt;/b&gt;&lt;/font&gt;" style="text;html=1;align=center;verticalAlign=middle;whiteSpace=wrap;rounded=0;" parent="1" vertex="1">
          <mxGeometry x="827" y="147.5" width="30" height="25" as="geometry" />
        </mxCell>
        <UserObject label="&lt;table xmlns=&quot;http://www.w3.org/1999/xhtml&quot; cellspacing=&quot;0&quot; cellpadding=&quot;0&quot; dir=&quot;ltr&quot; border=&quot;1&quot; style=&quot;table-layout:fixed;font-size:10pt;font-family:Arial;width:0px;border-collapse:collapse;border:none&quot; data-sheets-root=&quot;1&quot; data-sheets-baot=&quot;1&quot;&gt;&lt;colgroup&gt;&lt;col width=&quot;108&quot;&gt;&lt;col width=&quot;94&quot;&gt;&lt;col width=&quot;126&quot;&gt;&lt;col width=&quot;143&quot;&gt;&lt;/colgroup&gt;&lt;tbody&gt;&lt;tr style=&quot;height:17px;&quot;&gt;&lt;td style=&quot;border-top:1px solid #000000;border-right:1px solid #000000;border-bottom:1px solid #000000;border-left:1px solid #000000;overflow:hidden;padding:0px 3px 0px 3px;vertical-align:bottom;&quot;&gt;&lt;/td&gt;&lt;td style=&quot;border-top:1px solid #000000;border-right:1px solid #000000;border-bottom:1px solid #000000;overflow:hidden;padding:0px 3px 0px 3px;vertical-align:bottom;text-align:center;&quot;&gt;marge&lt;/td&gt;&lt;td style=&quot;border-top:1px solid #000000;border-right:1px solid #000000;border-bottom:1px solid #000000;overflow:hidden;padding:0px 3px 0px 3px;vertical-align:middle;text-align:center;&quot;&gt;Durée&lt;/td&gt;&lt;td style=&quot;border-top:1px solid #000000;border-right:1px solid #000000;border-bottom:1px solid #000000;overflow:hidden;padding:0px 3px 0px 3px;vertical-align:bottom;text-align:center;&quot;&gt;nouvelle durée&lt;/td&gt;&lt;/tr&gt;&lt;tr style=&quot;height:17px;&quot;&gt;&lt;td style=&quot;border-right:1px solid #000000;border-bottom:1px solid #000000;border-left:1px solid #000000;overflow:hidden;padding:0px 3px 0px 3px;vertical-align:middle;text-align:center;&quot;&gt;T1&lt;/td&gt;&lt;td style=&quot;border-right:1px solid #000000;border-bottom:1px solid #000000;overflow:hidden;padding:0px 3px 0px 3px;vertical-align:bottom;text-align:center;&quot;&gt;0&lt;/td&gt;&lt;td style=&quot;border-right:1px solid #000000;border-bottom:1px solid #000000;overflow:hidden;padding:0px 3px 0px 3px;vertical-align:middle;text-align:center;&quot;&gt;5&lt;/td&gt;&lt;td style=&quot;border-right:1px solid #000000;border-bottom:1px solid #000000;overflow:hidden;padding:0px 3px 0px 3px;vertical-align:bottom;text-align:center;&quot;&gt;5&lt;/td&gt;&lt;/tr&gt;&lt;tr style=&quot;height:17px;&quot;&gt;&lt;td style=&quot;border-right:1px solid #000000;border-bottom:1px solid #000000;border-left:1px solid #000000;overflow:hidden;padding:0px 3px 0px 3px;vertical-align:middle;text-align:center;&quot;&gt;T2&lt;/td&gt;&lt;td style=&quot;border-right:1px solid #000000;border-bottom:1px solid #000000;overflow:hidden;padding:0px 3px 0px 3px;vertical-align:bottom;text-align:center;&quot;&gt;5&lt;/td&gt;&lt;td style=&quot;border-right:1px solid #000000;border-bottom:1px solid #000000;overflow:hidden;padding:0px 3px 0px 3px;vertical-align:middle;text-align:center;&quot;&gt;2&lt;/td&gt;&lt;td style=&quot;border-right:1px solid #000000;border-bottom:1px solid #000000;overflow:hidden;padding:0px 3px 0px 3px;vertical-align:bottom;text-align:center;&quot;&gt;7&lt;/td&gt;&lt;/tr&gt;&lt;tr style=&quot;height:17px;&quot;&gt;&lt;td style=&quot;border-right:1px solid #000000;border-bottom:1px solid #000000;border-left:1px solid #000000;overflow:hidden;padding:0px 3px 0px 3px;vertical-align:middle;text-align:center;&quot;&gt;T3&lt;/td&gt;&lt;td style=&quot;border-right:1px solid #000000;border-bottom:1px solid #000000;overflow:hidden;padding:0px 3px 0px 3px;vertical-align:bottom;text-align:center;&quot;&gt;0&lt;/td&gt;&lt;td style=&quot;border-right:1px solid #000000;border-bottom:1px solid #000000;overflow:hidden;padding:0px 3px 0px 3px;vertical-align:middle;text-align:center;&quot;&gt;10&lt;/td&gt;&lt;td style=&quot;border-right:1px solid #000000;border-bottom:1px solid #000000;overflow:hidden;padding:0px 3px 0px 3px;vertical-align:bottom;text-align:center;&quot;&gt;10&lt;/td&gt;&lt;/tr&gt;&lt;tr style=&quot;height:17px;&quot;&gt;&lt;td style=&quot;border-right:1px solid #000000;border-bottom:1px solid #000000;border-left:1px solid #000000;overflow:hidden;padding:0px 3px 0px 3px;vertical-align:middle;text-align:center;&quot;&gt;T4&lt;/td&gt;&lt;td style=&quot;border-right:1px solid #000000;border-bottom:1px solid #000000;overflow:hidden;padding:0px 3px 0px 3px;vertical-align:bottom;text-align:center;&quot;&gt;5&lt;/td&gt;&lt;td style=&quot;border-right:1px solid #000000;border-bottom:1px solid #000000;overflow:hidden;padding:0px 3px 0px 3px;vertical-align:middle;text-align:center;&quot;&gt;8&lt;/td&gt;&lt;td style=&quot;border-right:1px solid #000000;border-bottom:1px solid #000000;overflow:hidden;padding:0px 3px 0px 3px;vertical-align:bottom;text-align:center;&quot;&gt;13&lt;/td&gt;&lt;/tr&gt;&lt;tr style=&quot;height:17px;&quot;&gt;&lt;td style=&quot;border-right:1px solid #000000;border-bottom:1px solid #000000;border-left:1px solid #000000;overflow:hidden;padding:0px 3px 0px 3px;vertical-align:middle;text-align:center;&quot;&gt;T5&lt;/td&gt;&lt;td style=&quot;border-right:1px solid #000000;border-bottom:1px solid #000000;overflow:hidden;padding:0px 3px 0px 3px;vertical-align:bottom;text-align:center;&quot;&gt;24&lt;/td&gt;&lt;td style=&quot;border-right:1px solid #000000;border-bottom:1px solid #000000;overflow:hidden;padding:0px 3px 0px 3px;vertical-align:middle;text-align:center;&quot;&gt;10&lt;/td&gt;&lt;td style=&quot;border-right:1px solid #000000;border-bottom:1px solid #000000;overflow:hidden;padding:0px 3px 0px 3px;vertical-align:bottom;text-align:center;&quot;&gt;34&lt;/td&gt;&lt;/tr&gt;&lt;tr style=&quot;height:17px;&quot;&gt;&lt;td style=&quot;border-right:1px solid #000000;border-bottom:1px solid #000000;border-left:1px solid #000000;overflow:hidden;padding:0px 3px 0px 3px;vertical-align:middle;text-align:center;&quot;&gt;T6&lt;/td&gt;&lt;td style=&quot;border-right:1px solid #000000;border-bottom:1px solid #000000;overflow:hidden;padding:0px 3px 0px 3px;vertical-align:bottom;text-align:center;&quot;&gt;0&lt;/td&gt;&lt;td style=&quot;border-right:1px solid #000000;border-bottom:1px solid #000000;overflow:hidden;padding:0px 3px 0px 3px;vertical-align:middle;text-align:center;&quot;&gt;25&lt;/td&gt;&lt;td style=&quot;border-right:1px solid #000000;border-bottom:1px solid #000000;overflow:hidden;padding:0px 3px 0px 3px;vertical-align:bottom;text-align:center;&quot;&gt;25&lt;/td&gt;&lt;/tr&gt;&lt;tr style=&quot;height:17px;&quot;&gt;&lt;td style=&quot;border-right:1px solid #000000;border-bottom:1px solid #000000;border-left:1px solid #000000;overflow:hidden;padding:0px 3px 0px 3px;vertical-align:middle;text-align:center;&quot;&gt;T7&lt;/td&gt;&lt;td style=&quot;border-right:1px solid #000000;border-bottom:1px solid #000000;overflow:hidden;padding:0px 3px 0px 3px;vertical-align:bottom;text-align:center;&quot;&gt;24&lt;/td&gt;&lt;td style=&quot;border-right:1px solid #000000;border-bottom:1px solid #000000;overflow:hidden;padding:0px 3px 0px 3px;vertical-align:middle;text-align:center;&quot;&gt;4&lt;/td&gt;&lt;td style=&quot;border-right:1px solid #000000;border-bottom:1px solid #000000;overflow:hidden;padding:0px 3px 0px 3px;vertical-align:bottom;text-align:center;&quot;&gt;28&lt;/td&gt;&lt;/tr&gt;&lt;tr style=&quot;height:17px;&quot;&gt;&lt;td style=&quot;border-right:1px solid #000000;border-bottom:1px solid #000000;border-left:1px solid #000000;overflow:hidden;padding:0px 3px 0px 3px;vertical-align:middle;text-align:center;&quot;&gt;T8&lt;/td&gt;&lt;td style=&quot;border-right:1px solid #000000;border-bottom:1px solid #000000;overflow:hidden;padding:0px 3px 0px 3px;vertical-align:bottom;text-align:center;&quot;&gt;15&lt;/td&gt;&lt;td style=&quot;border-right:1px solid #000000;border-bottom:1px solid #000000;overflow:hidden;padding:0px 3px 0px 3px;vertical-align:middle;text-align:center;&quot;&gt;10&lt;/td&gt;&lt;td style=&quot;border-right:1px solid #000000;border-bottom:1px solid #000000;overflow:hidden;padding:0px 3px 0px 3px;vertical-align:bottom;text-align:center;&quot;&gt;25&lt;/td&gt;&lt;/tr&gt;&lt;tr style=&quot;height:17px;&quot;&gt;&lt;td style=&quot;border-right:1px solid #000000;border-bottom:1px solid #000000;border-left:1px solid #000000;overflow:hidden;padding:0px 3px 0px 3px;vertical-align:middle;text-align:center;&quot;&gt;T9&lt;/td&gt;&lt;td style=&quot;border-right:1px solid #000000;border-bottom:1px solid #000000;overflow:hidden;padding:0px 3px 0px 3px;vertical-align:bottom;text-align:center;&quot;&gt;56&lt;/td&gt;&lt;td style=&quot;border-right:1px solid #000000;border-bottom:1px solid #000000;overflow:hidden;padding:0px 3px 0px 3px;vertical-align:middle;text-align:center;&quot;&gt;2&lt;/td&gt;&lt;td style=&quot;border-right:1px solid #000000;border-bottom:1px solid #000000;overflow:hidden;padding:0px 3px 0px 3px;vertical-align:bottom;text-align:center;&quot;&gt;58&lt;/td&gt;&lt;/tr&gt;&lt;tr style=&quot;height:17px;&quot;&gt;&lt;td style=&quot;border-right:1px solid #000000;border-bottom:1px solid #000000;border-left:1px solid #000000;overflow:hidden;padding:0px 3px 0px 3px;vertical-align:middle;text-align:center;&quot;&gt;T10&lt;/td&gt;&lt;td style=&quot;border-right:1px solid #000000;border-bottom:1px solid #000000;overflow:hidden;padding:0px 3px 0px 3px;vertical-align:bottom;text-align:center;&quot;&gt;57&lt;/td&gt;&lt;td style=&quot;border-right:1px solid #000000;border-bottom:1px solid #000000;overflow:hidden;padding:0px 3px 0px 3px;vertical-align:middle;text-align:center;&quot;&gt;1&lt;/td&gt;&lt;td style=&quot;border-right:1px solid #000000;border-bottom:1px solid #000000;overflow:hidden;padding:0px 3px 0px 3px;vertical-align:bottom;text-align:center;&quot;&gt;58&lt;/td&gt;&lt;/tr&gt;&lt;tr style=&quot;height:17px;&quot;&gt;&lt;td style=&quot;border-right:1px solid #000000;border-bottom:1px solid #000000;border-left:1px solid #000000;overflow:hidden;padding:0px 3px 0px 3px;vertical-align:middle;text-align:center;&quot;&gt;T11&lt;/td&gt;&lt;td style=&quot;border-right:1px solid #000000;border-bottom:1px solid #000000;overflow:hidden;padding:0px 3px 0px 3px;vertical-align:bottom;text-align:center;&quot;&gt;0&lt;/td&gt;&lt;td style=&quot;border-right:1px solid #000000;border-bottom:1px solid #000000;overflow:hidden;padding:0px 3px 0px 3px;vertical-align:middle;text-align:center;&quot;&gt;15&lt;/td&gt;&lt;td style=&quot;border-right:1px solid #000000;border-bottom:1px solid #000000;overflow:hidden;padding:0px 3px 0px 3px;vertical-align:bottom;text-align:center;&quot;&gt;15&lt;/td&gt;&lt;/tr&gt;&lt;tr style=&quot;height:17px;&quot;&gt;&lt;td style=&quot;border-right:1px solid #000000;border-bottom:1px solid #000000;border-left:1px solid #000000;overflow:hidden;padding:0px 3px 0px 3px;vertical-align:middle;text-align:center;&quot;&gt;T12&lt;/td&gt;&lt;td style=&quot;border-right:1px solid #000000;border-bottom:1px solid #000000;overflow:hidden;padding:0px 3px 0px 3px;vertical-align:bottom;text-align:center;&quot;&gt;0&lt;/td&gt;&lt;td style=&quot;border-right:1px solid #000000;border-bottom:1px solid #000000;overflow:hidden;padding:0px 3px 0px 3px;vertical-align:middle;text-align:center;&quot;&gt;10&lt;/td&gt;&lt;td style=&quot;border-right:1px solid #000000;border-bottom:1px solid #000000;overflow:hidden;padding:0px 3px 0px 3px;vertical-align:bottom;text-align:center;&quot;&gt;10&lt;/td&gt;&lt;/tr&gt;&lt;tr style=&quot;height:17px;&quot;&gt;&lt;td style=&quot;border-right:1px solid #000000;border-bottom:1px solid #000000;border-left:1px solid #000000;overflow:hidden;padding:0px 3px 0px 3px;vertical-align:middle;text-align:center;&quot;&gt;T13&lt;/td&gt;&lt;td style=&quot;border-right:1px solid #000000;border-bottom:1px solid #000000;overflow:hidden;padding:0px 3px 0px 3px;vertical-align:bottom;text-align:center;&quot;&gt;57&lt;/td&gt;&lt;td style=&quot;border-right:1px solid #000000;border-bottom:1px solid #000000;overflow:hidden;padding:0px 3px 0px 3px;vertical-align:middle;text-align:center;&quot;&gt;12&lt;/td&gt;&lt;td style=&quot;border-right:1px solid #000000;border-bottom:1px solid #000000;overflow:hidden;padding:0px 3px 0px 3px;vertical-align:bottom;text-align:center;&quot;&gt;69&lt;/td&gt;&lt;/tr&gt;&lt;tr style=&quot;height:17px;&quot;&gt;&lt;td style=&quot;border-right:1px solid #000000;border-bottom:1px solid #000000;border-left:1px solid #000000;overflow:hidden;padding:0px 3px 0px 3px;vertical-align:middle;text-align:center;&quot;&gt;T14&lt;/td&gt;&lt;td style=&quot;border-right:1px solid #000000;border-bottom:1px solid #000000;overflow:hidden;padding:0px 3px 0px 3px;vertical-align:bottom;text-align:center;&quot;&gt;0&lt;/td&gt;&lt;td style=&quot;border-right:1px solid #000000;border-bottom:1px solid #000000;overflow:hidden;padding:0px 3px 0px 3px;vertical-align:middle;text-align:center;&quot;&gt;30&lt;/td&gt;&lt;td style=&quot;border-right:1px solid #000000;border-bottom:1px solid #000000;overflow:hidden;padding:0px 3px 0px 3px;vertical-align:bottom;text-align:center;&quot;&gt;30&lt;/td&gt;&lt;/tr&gt;&lt;/tbody&gt;&lt;/table&gt;" link="&lt;table xmlns=&quot;http://www.w3.org/1999/xhtml&quot; cellspacing=&quot;0&quot; cellpadding=&quot;0&quot; dir=&quot;ltr&quot; border=&quot;1&quot; style=&quot;table-layout:fixed;font-size:10pt;font-family:Arial;width:0px;border-collapse:collapse;border:none&quot; data-sheets-root=&quot;1&quot; data-sheets-baot=&quot;1&quot;&gt;&lt;colgroup&gt;&lt;col width=&quot;108&quot;&gt;&lt;col width=&quot;94&quot;&gt;&lt;col width=&quot;126&quot;&gt;&lt;col width=&quot;143&quot;&gt;&lt;/colgroup&gt;&lt;tbody&gt;&lt;tr style=&quot;height:17px;&quot;&gt;&lt;td style=&quot;border-top:1px solid #000000;border-right:1px solid #000000;border-bottom:1px solid #000000;border-left:1px solid #000000;overflow:hidden;padding:0px 3px 0px 3px;vertical-align:bottom;&quot;&gt;&lt;/td&gt;&lt;td style=&quot;border-top:1px solid #000000;border-right:1px solid #000000;border-bottom:1px solid #000000;overflow:hidden;padding:0px 3px 0px 3px;vertical-align:bottom;text-align:center;&quot;&gt;marge&lt;/td&gt;&lt;td style=&quot;border-top:1px solid #000000;border-right:1px solid #000000;border-bottom:1px solid #000000;overflow:hidden;padding:0px 3px 0px 3px;vertical-align:middle;text-align:center;&quot;&gt;Durée&lt;/td&gt;&lt;td style=&quot;border-top:1px solid #000000;border-right:1px solid #000000;border-bottom:1px solid #000000;overflow:hidden;padding:0px 3px 0px 3px;vertical-align:bottom;text-align:center;&quot;&gt;nouvelle durée&lt;/td&gt;&lt;/tr&gt;&lt;tr style=&quot;height:17px;&quot;&gt;&lt;td style=&quot;border-right:1px solid #000000;border-bottom:1px solid #000000;border-left:1px solid #000000;overflow:hidden;padding:0px 3px 0px 3px;vertical-align:middle;text-align:center;&quot;&gt;T1&lt;/td&gt;&lt;td style=&quot;border-right:1px solid #000000;border-bottom:1px solid #000000;overflow:hidden;padding:0px 3px 0px 3px;vertical-align:bottom;text-align:center;&quot;&gt;0&lt;/td&gt;&lt;td style=&quot;border-right:1px solid #000000;border-bottom:1px solid #000000;overflow:hidden;padding:0px 3px 0px 3px;vertical-align:middle;text-align:center;&quot;&gt;5&lt;/td&gt;&lt;td style=&quot;border-right:1px solid #000000;border-bottom:1px solid #000000;overflow:hidden;padding:0px 3px 0px 3px;vertical-align:bottom;text-align:center;&quot;&gt;5&lt;/td&gt;&lt;/tr&gt;&lt;tr style=&quot;height:17px;&quot;&gt;&lt;td style=&quot;border-right:1px solid #000000;border-bottom:1px solid #000000;border-left:1px solid #000000;overflow:hidden;padding:0px 3px 0px 3px;vertical-align:middle;text-align:center;&quot;&gt;T2&lt;/td&gt;&lt;td style=&quot;border-right:1px solid #000000;border-bottom:1px solid #000000;overflow:hidden;padding:0px 3px 0px 3px;vertical-align:bottom;text-align:center;&quot;&gt;5&lt;/td&gt;&lt;td style=&quot;border-right:1px solid #000000;border-bottom:1px solid #000000;overflow:hidden;padding:0px 3px 0px 3px;vertical-align:middle;text-align:center;&quot;&gt;2&lt;/td&gt;&lt;td style=&quot;border-right:1px solid #000000;border-bottom:1px solid #000000;overflow:hidden;padding:0px 3px 0px 3px;vertical-align:bottom;text-align:center;&quot;&gt;7&lt;/td&gt;&lt;/tr&gt;&lt;tr style=&quot;height:17px;&quot;&gt;&lt;td style=&quot;border-right:1px solid #000000;border-bottom:1px solid #000000;border-left:1px solid #000000;overflow:hidden;padding:0px 3px 0px 3px;vertical-align:middle;text-align:center;&quot;&gt;T3&lt;/td&gt;&lt;td style=&quot;border-right:1px solid #000000;border-bottom:1px solid #000000;overflow:hidden;padding:0px 3px 0px 3px;vertical-align:bottom;text-align:center;&quot;&gt;0&lt;/td&gt;&lt;td style=&quot;border-right:1px solid #000000;border-bottom:1px solid #000000;overflow:hidden;padding:0px 3px 0px 3px;vertical-align:middle;text-align:center;&quot;&gt;10&lt;/td&gt;&lt;td style=&quot;border-right:1px solid #000000;border-bottom:1px solid #000000;overflow:hidden;padding:0px 3px 0px 3px;vertical-align:bottom;text-align:center;&quot;&gt;10&lt;/td&gt;&lt;/tr&gt;&lt;tr style=&quot;height:17px;&quot;&gt;&lt;td style=&quot;border-right:1px solid #000000;border-bottom:1px solid #000000;border-left:1px solid #000000;overflow:hidden;padding:0px 3px 0px 3px;vertical-align:middle;text-align:center;&quot;&gt;T4&lt;/td&gt;&lt;td style=&quot;border-right:1px solid #000000;border-bottom:1px solid #000000;overflow:hidden;padding:0px 3px 0px 3px;vertical-align:bottom;text-align:center;&quot;&gt;5&lt;/td&gt;&lt;td style=&quot;border-right:1px solid #000000;border-bottom:1px solid #000000;overflow:hidden;padding:0px 3px 0px 3px;vertical-align:middle;text-align:center;&quot;&gt;8&lt;/td&gt;&lt;td style=&quot;border-right:1px solid #000000;border-bottom:1px solid #000000;overflow:hidden;padding:0px 3px 0px 3px;vertical-align:bottom;text-align:center;&quot;&gt;13&lt;/td&gt;&lt;/tr&gt;&lt;tr style=&quot;height:17px;&quot;&gt;&lt;td style=&quot;border-right:1px solid #000000;border-bottom:1px solid #000000;border-left:1px solid #000000;overflow:hidden;padding:0px 3px 0px 3px;vertical-align:middle;text-align:center;&quot;&gt;T5&lt;/td&gt;&lt;td style=&quot;border-right:1px solid #000000;border-bottom:1px solid #000000;overflow:hidden;padding:0px 3px 0px 3px;vertical-align:bottom;text-align:center;&quot;&gt;24&lt;/td&gt;&lt;td style=&quot;border-right:1px solid #000000;border-bottom:1px solid #000000;overflow:hidden;padding:0px 3px 0px 3px;vertical-align:middle;text-align:center;&quot;&gt;10&lt;/td&gt;&lt;td style=&quot;border-right:1px solid #000000;border-bottom:1px solid #000000;overflow:hidden;padding:0px 3px 0px 3px;vertical-align:bottom;text-align:center;&quot;&gt;34&lt;/td&gt;&lt;/tr&gt;&lt;tr style=&quot;height:17px;&quot;&gt;&lt;td style=&quot;border-right:1px solid #000000;border-bottom:1px solid #000000;border-left:1px solid #000000;overflow:hidden;padding:0px 3px 0px 3px;vertical-align:middle;text-align:center;&quot;&gt;T6&lt;/td&gt;&lt;td style=&quot;border-right:1px solid #000000;border-bottom:1px solid #000000;overflow:hidden;padding:0px 3px 0px 3px;vertical-align:bottom;text-align:center;&quot;&gt;0&lt;/td&gt;&lt;td style=&quot;border-right:1px solid #000000;border-bottom:1px solid #000000;overflow:hidden;padding:0px 3px 0px 3px;vertical-align:middle;text-align:center;&quot;&gt;25&lt;/td&gt;&lt;td style=&quot;border-right:1px solid #000000;border-bottom:1px solid #000000;overflow:hidden;padding:0px 3px 0px 3px;vertical-align:bottom;text-align:center;&quot;&gt;25&lt;/td&gt;&lt;/tr&gt;&lt;tr style=&quot;height:17px;&quot;&gt;&lt;td style=&quot;border-right:1px solid #000000;border-bottom:1px solid #000000;border-left:1px solid #000000;overflow:hidden;padding:0px 3px 0px 3px;vertical-align:middle;text-align:center;&quot;&gt;T7&lt;/td&gt;&lt;td style=&quot;border-right:1px solid #000000;border-bottom:1px solid #000000;overflow:hidden;padding:0px 3px 0px 3px;vertical-align:bottom;text-align:center;&quot;&gt;24&lt;/td&gt;&lt;td style=&quot;border-right:1px solid #000000;border-bottom:1px solid #000000;overflow:hidden;padding:0px 3px 0px 3px;vertical-align:middle;text-align:center;&quot;&gt;4&lt;/td&gt;&lt;td style=&quot;border-right:1px solid #000000;border-bottom:1px solid #000000;overflow:hidden;padding:0px 3px 0px 3px;vertical-align:bottom;text-align:center;&quot;&gt;28&lt;/td&gt;&lt;/tr&gt;&lt;tr style=&quot;height:17px;&quot;&gt;&lt;td style=&quot;border-right:1px solid #000000;border-bottom:1px solid #000000;border-left:1px solid #000000;overflow:hidden;padding:0px 3px 0px 3px;vertical-align:middle;text-align:center;&quot;&gt;T8&lt;/td&gt;&lt;td style=&quot;border-right:1px solid #000000;border-bottom:1px solid #000000;overflow:hidden;padding:0px 3px 0px 3px;vertical-align:bottom;text-align:center;&quot;&gt;15&lt;/td&gt;&lt;td style=&quot;border-right:1px solid #000000;border-bottom:1px solid #000000;overflow:hidden;padding:0px 3px 0px 3px;vertical-align:middle;text-align:center;&quot;&gt;10&lt;/td&gt;&lt;td style=&quot;border-right:1px solid #000000;border-bottom:1px solid #000000;overflow:hidden;padding:0px 3px 0px 3px;vertical-align:bottom;text-align:center;&quot;&gt;25&lt;/td&gt;&lt;/tr&gt;&lt;tr style=&quot;height:17px;&quot;&gt;&lt;td style=&quot;border-right:1px solid #000000;border-bottom:1px solid #000000;border-left:1px solid #000000;overflow:hidden;padding:0px 3px 0px 3px;vertical-align:middle;text-align:center;&quot;&gt;T9&lt;/td&gt;&lt;td style=&quot;border-right:1px solid #000000;border-bottom:1px solid #000000;overflow:hidden;padding:0px 3px 0px 3px;vertical-align:bottom;text-align:center;&quot;&gt;56&lt;/td&gt;&lt;td style=&quot;border-right:1px solid #000000;border-bottom:1px solid #000000;overflow:hidden;padding:0px 3px 0px 3px;vertical-align:middle;text-align:center;&quot;&gt;2&lt;/td&gt;&lt;td style=&quot;border-right:1px solid #000000;border-bottom:1px solid #000000;overflow:hidden;padding:0px 3px 0px 3px;vertical-align:bottom;text-align:center;&quot;&gt;58&lt;/td&gt;&lt;/tr&gt;&lt;tr style=&quot;height:17px;&quot;&gt;&lt;td style=&quot;border-right:1px solid #000000;border-bottom:1px solid #000000;border-left:1px solid #000000;overflow:hidden;padding:0px 3px 0px 3px;vertical-align:middle;text-align:center;&quot;&gt;T10&lt;/td&gt;&lt;td style=&quot;border-right:1px solid #000000;border-bottom:1px solid #000000;overflow:hidden;padding:0px 3px 0px 3px;vertical-align:bottom;text-align:center;&quot;&gt;57&lt;/td&gt;&lt;td style=&quot;border-right:1px solid #000000;border-bottom:1px solid #000000;overflow:hidden;padding:0px 3px 0px 3px;vertical-align:middle;text-align:center;&quot;&gt;1&lt;/td&gt;&lt;td style=&quot;border-right:1px solid #000000;border-bottom:1px solid #000000;overflow:hidden;padding:0px 3px 0px 3px;vertical-align:bottom;text-align:center;&quot;&gt;58&lt;/td&gt;&lt;/tr&gt;&lt;tr style=&quot;height:17px;&quot;&gt;&lt;td style=&quot;border-right:1px solid #000000;border-bottom:1px solid #000000;border-left:1px solid #000000;overflow:hidden;padding:0px 3px 0px 3px;vertical-align:middle;text-align:center;&quot;&gt;T11&lt;/td&gt;&lt;td style=&quot;border-right:1px solid #000000;border-bottom:1px solid #000000;overflow:hidden;padding:0px 3px 0px 3px;vertical-align:bottom;text-align:center;&quot;&gt;0&lt;/td&gt;&lt;td style=&quot;border-right:1px solid #000000;border-bottom:1px solid #000000;overflow:hidden;padding:0px 3px 0px 3px;vertical-align:middle;text-align:center;&quot;&gt;15&lt;/td&gt;&lt;td style=&quot;border-right:1px solid #000000;border-bottom:1px solid #000000;overflow:hidden;padding:0px 3px 0px 3px;vertical-align:bottom;text-align:center;&quot;&gt;15&lt;/td&gt;&lt;/tr&gt;&lt;tr style=&quot;height:17px;&quot;&gt;&lt;td style=&quot;border-right:1px solid #000000;border-bottom:1px solid #000000;border-left:1px solid #000000;overflow:hidden;padding:0px 3px 0px 3px;vertical-align:middle;text-align:center;&quot;&gt;T12&lt;/td&gt;&lt;td style=&quot;border-right:1px solid #000000;border-bottom:1px solid #000000;overflow:hidden;padding:0px 3px 0px 3px;vertical-align:bottom;text-align:center;&quot;&gt;0&lt;/td&gt;&lt;td style=&quot;border-right:1px solid #000000;border-bottom:1px solid #000000;overflow:hidden;padding:0px 3px 0px 3px;vertical-align:middle;text-align:center;&quot;&gt;10&lt;/td&gt;&lt;td style=&quot;border-right:1px solid #000000;border-bottom:1px solid #000000;overflow:hidden;padding:0px 3px 0px 3px;vertical-align:bottom;text-align:center;&quot;&gt;10&lt;/td&gt;&lt;/tr&gt;&lt;tr style=&quot;height:17px;&quot;&gt;&lt;td style=&quot;border-right:1px solid #000000;border-bottom:1px solid #000000;border-left:1px solid #000000;overflow:hidden;padding:0px 3px 0px 3px;vertical-align:middle;text-align:center;&quot;&gt;T13&lt;/td&gt;&lt;td style=&quot;border-right:1px solid #000000;border-bottom:1px solid #000000;overflow:hidden;padding:0px 3px 0px 3px;vertical-align:bottom;text-align:center;&quot;&gt;57&lt;/td&gt;&lt;td style=&quot;border-right:1px solid #000000;border-bottom:1px solid #000000;overflow:hidden;padding:0px 3px 0px 3px;vertical-align:middle;text-align:center;&quot;&gt;12&lt;/td&gt;&lt;td style=&quot;border-right:1px solid #000000;border-bottom:1px solid #000000;overflow:hidden;padding:0px 3px 0px 3px;vertical-align:bottom;text-align:center;&quot;&gt;69&lt;/td&gt;&lt;/tr&gt;&lt;tr style=&quot;height:17px;&quot;&gt;&lt;td style=&quot;border-right:1px solid #000000;border-bottom:1px solid #000000;border-left:1px solid #000000;overflow:hidden;padding:0px 3px 0px 3px;vertical-align:middle;text-align:center;&quot;&gt;T14&lt;/td&gt;&lt;td style=&quot;border-right:1px solid #000000;border-bottom:1px solid #000000;overflow:hidden;padding:0px 3px 0px 3px;vertical-align:bottom;text-align:center;&quot;&gt;0&lt;/td&gt;&lt;td style=&quot;border-right:1px solid #000000;border-bottom:1px solid #000000;overflow:hidden;padding:0px 3px 0px 3px;vertical-align:middle;text-align:center;&quot;&gt;30&lt;/td&gt;&lt;td style=&quot;border-right:1px solid #000000;border-bottom:1px solid #000000;overflow:hidden;padding:0px 3px 0px 3px;vertical-align:bottom;text-align:center;&quot;&gt;30&lt;/td&gt;&lt;/tr&gt;&lt;/tbody&gt;&lt;/table&gt;" id="GL-udRpqvyLbXUK6B8mJ-1">
          <mxCell style="text;whiteSpace=wrap;html=1;" parent="1" vertex="1">
            <mxGeometry x="825" y="605" width="510" height="280" as="geometry" />
          </mxCell>
        </UserObject>
        <UserObject label="&lt;table xmlns=&quot;http://www.w3.org/1999/xhtml&quot; cellspacing=&quot;0&quot; cellpadding=&quot;0&quot; dir=&quot;ltr&quot; border=&quot;1&quot; style=&quot;table-layout:fixed;font-size:10pt;font-family:Arial;width:0px;border-collapse:collapse;border:none&quot; data-sheets-root=&quot;1&quot; data-sheets-baot=&quot;1&quot;&gt;&lt;colgroup&gt;&lt;col width=&quot;70&quot;&gt;&lt;col width=&quot;206&quot;&gt;&lt;col width=&quot;130&quot;&gt;&lt;col width=&quot;115&quot;&gt;&lt;/colgroup&gt;&lt;tbody&gt;&lt;tr style=&quot;height:17px;&quot;&gt;&lt;td style=&quot;border-right:1px solid #000000;border-bottom:1px solid #000000;overflow:hidden;padding:0px 3px 0px 3px;vertical-align:middle;&quot;&gt;&lt;/td&gt;&lt;td style=&quot;border-top:1px solid #000000;border-right:1px solid #000000;border-bottom:1px solid #000000;overflow:hidden;padding:0px 3px 0px 3px;vertical-align:middle;font-size:11pt;text-align:center;&quot;&gt;début&lt;/td&gt;&lt;td style=&quot;border-top:1px solid #000000;border-right:1px solid #000000;border-bottom:1px solid #000000;overflow:hidden;padding:0px 3px 0px 3px;vertical-align:middle;font-size:11pt;text-align:center;&quot;&gt;fin au plus tôt&lt;/td&gt;&lt;td style=&quot;border-top:1px solid #000000;border-right:1px solid #000000;border-bottom:1px solid #000000;overflow:hidden;padding:0px 3px 0px 3px;vertical-align:middle;font-size:11pt;text-align:center;&quot;&gt;fin au plus tard&lt;/td&gt;&lt;/tr&gt;&lt;tr style=&quot;height:17px;&quot;&gt;&lt;td style=&quot;border-right:1px solid #000000;border-bottom:1px solid #000000;border-left:1px solid #000000;overflow:hidden;padding:0px 3px 0px 3px;vertical-align:bottom;font-size:11pt;text-align:center;&quot;&gt;A&lt;/td&gt;&lt;td style=&quot;border-right:1px solid #000000;border-bottom:1px solid #000000;overflow:hidden;padding:0px 3px 0px 3px;vertical-align:bottom;font-size:11pt;text-align:center;&quot;&gt;21/10/24&lt;/td&gt;&lt;td style=&quot;border-right:1px solid #000000;border-bottom:1px solid #000000;overflow:hidden;padding:0px 3px 0px 3px;vertical-align:bottom;&quot;&gt;&lt;/td&gt;&lt;td style=&quot;border-right:1px solid #000000;border-bottom:1px solid #000000;overflow:hidden;padding:0px 3px 0px 3px;vertical-align:bottom;&quot;&gt;&lt;/td&gt;&lt;/tr&gt;&lt;tr style=&quot;height:17px;&quot;&gt;&lt;td style=&quot;border-right:1px solid #000000;border-bottom:1px solid #000000;border-left:1px solid #000000;overflow:hidden;padding:0px 3px 0px 3px;vertical-align:bottom;font-size:11pt;text-align:center;&quot;&gt;B&lt;/td&gt;&lt;td style=&quot;border-right:1px solid #000000;border-bottom:1px solid #000000;overflow:hidden;padding:0px 3px 0px 3px;vertical-align:bottom;font-size:11pt;text-align:center;&quot;&gt;25/10/24&lt;/td&gt;&lt;td style=&quot;border-right:1px solid #000000;border-bottom:1px solid #000000;overflow:hidden;padding:0px 3px 0px 3px;vertical-align:bottom;font-size:11pt;text-align:center;&quot;&gt;25/10/24&lt;/td&gt;&lt;td style=&quot;border-right:1px solid #000000;border-bottom:1px solid #000000;overflow:hidden;padding:0px 3px 0px 3px;vertical-align:bottom;font-size:11pt;text-align:center;&quot;&gt;25/10/24&lt;/td&gt;&lt;/tr&gt;&lt;tr style=&quot;height:17px;&quot;&gt;&lt;td style=&quot;border-right:1px solid #000000;border-bottom:1px solid #000000;border-left:1px solid #000000;overflow:hidden;padding:0px 3px 0px 3px;vertical-align:bottom;font-size:11pt;text-align:center;&quot;&gt;C&lt;/td&gt;&lt;td style=&quot;border-right:1px solid #000000;border-bottom:1px solid #000000;overflow:hidden;padding:0px 3px 0px 3px;vertical-align:bottom;font-size:11pt;text-align:center;&quot;&gt;21/10/24&lt;/td&gt;&lt;td style=&quot;border-right:1px solid #000000;border-bottom:1px solid #000000;overflow:hidden;padding:0px 3px 0px 3px;vertical-align:bottom;font-size:11pt;text-align:center;&quot;&gt;22/10/24&lt;/td&gt;&lt;td style=&quot;border-right:1px solid #000000;border-bottom:1px solid #000000;overflow:hidden;padding:0px 3px 0px 3px;vertical-align:bottom;font-size:11pt;text-align:center;&quot;&gt;29/10/24&lt;/td&gt;&lt;/tr&gt;&lt;tr style=&quot;height:17px;&quot;&gt;&lt;td style=&quot;border-right:1px solid #000000;border-bottom:1px solid #000000;border-left:1px solid #000000;overflow:hidden;padding:0px 3px 0px 3px;vertical-align:bottom;font-size:11pt;text-align:center;&quot;&gt;D&lt;/td&gt;&lt;td style=&quot;border-right:1px solid #000000;border-bottom:1px solid #000000;overflow:hidden;padding:0px 3px 0px 3px;vertical-align:bottom;font-size:11pt;text-align:center;&quot;&gt;28/10/24&lt;/td&gt;&lt;td style=&quot;border-right:1px solid #000000;border-bottom:1px solid #000000;overflow:hidden;padding:0px 3px 0px 3px;vertical-align:bottom;font-size:11pt;text-align:center;&quot;&gt;12/11/24&lt;/td&gt;&lt;td style=&quot;border-right:1px solid #000000;border-bottom:1px solid #000000;overflow:hidden;padding:0px 3px 0px 3px;vertical-align:bottom;font-size:11pt;text-align:center;&quot;&gt;03/12/24&lt;/td&gt;&lt;/tr&gt;&lt;tr style=&quot;height:17px;&quot;&gt;&lt;td style=&quot;border-right:1px solid #000000;border-bottom:1px solid #000000;border-left:1px solid #000000;overflow:hidden;padding:0px 3px 0px 3px;vertical-align:bottom;font-size:11pt;text-align:center;&quot;&gt;E&lt;/td&gt;&lt;td style=&quot;border-right:1px solid #000000;border-bottom:1px solid #000000;overflow:hidden;padding:0px 3px 0px 3px;vertical-align:bottom;font-size:11pt;text-align:center;&quot;&gt;23/10/24&lt;/td&gt;&lt;td style=&quot;border-right:1px solid #000000;border-bottom:1px solid #000000;overflow:hidden;padding:0px 3px 0px 3px;vertical-align:bottom;font-size:11pt;text-align:center;&quot;&gt;06/11/24&lt;/td&gt;&lt;td style=&quot;border-right:1px solid #000000;border-bottom:1px solid #000000;overflow:hidden;padding:0px 3px 0px 3px;vertical-align:bottom;font-size:11pt;text-align:center;&quot;&gt;11/12/24&lt;/td&gt;&lt;/tr&gt;&lt;tr style=&quot;height:17px;&quot;&gt;&lt;td style=&quot;border-right:1px solid #000000;border-bottom:1px solid #000000;border-left:1px solid #000000;overflow:hidden;padding:0px 3px 0px 3px;vertical-align:bottom;font-size:11pt;text-align:center;&quot;&gt;F&lt;/td&gt;&lt;td style=&quot;border-right:1px solid #000000;border-bottom:1px solid #000000;overflow:hidden;padding:0px 3px 0px 3px;vertical-align:bottom;font-size:11pt;text-align:center;&quot;&gt;23/10/24&lt;/td&gt;&lt;td style=&quot;border-right:1px solid #000000;border-bottom:1px solid #000000;overflow:hidden;padding:0px 3px 0px 3px;vertical-align:bottom;font-size:11pt;text-align:center;&quot;&gt;12/11/24&lt;/td&gt;&lt;td style=&quot;border-right:1px solid #000000;border-bottom:1px solid #000000;overflow:hidden;padding:0px 3px 0px 3px;vertical-align:bottom;font-size:11pt;text-align:center;&quot;&gt;12/11/24&lt;/td&gt;&lt;/tr&gt;&lt;tr style=&quot;height:17px;&quot;&gt;&lt;td style=&quot;border-right:1px solid #000000;border-bottom:1px solid #000000;border-left:1px solid #000000;overflow:hidden;padding:0px 3px 0px 3px;vertical-align:bottom;font-size:11pt;text-align:center;&quot;&gt;G&lt;/td&gt;&lt;td style=&quot;border-right:1px solid #000000;border-bottom:1px solid #000000;overflow:hidden;padding:0px 3px 0px 3px;vertical-align:bottom;font-size:11pt;text-align:center;&quot;&gt;13/11/24&lt;/td&gt;&lt;td style=&quot;border-right:1px solid #000000;border-bottom:1px solid #000000;overflow:hidden;padding:0px 3px 0px 3px;vertical-align:bottom;font-size:11pt;text-align:center;&quot;&gt;26/11/24&lt;/td&gt;&lt;td style=&quot;border-right:1px solid #000000;border-bottom:1px solid #000000;overflow:hidden;padding:0px 3px 0px 3px;vertical-align:bottom;font-size:11pt;text-align:center;&quot;&gt;17/12/24&lt;/td&gt;&lt;/tr&gt;&lt;tr style=&quot;height:17px;&quot;&gt;&lt;td style=&quot;border-right:1px solid #000000;border-bottom:1px solid #000000;border-left:1px solid #000000;overflow:hidden;padding:0px 3px 0px 3px;vertical-align:bottom;font-size:11pt;text-align:center;&quot;&gt;H&lt;/td&gt;&lt;td style=&quot;border-right:1px solid #000000;border-bottom:1px solid #000000;overflow:hidden;padding:0px 3px 0px 3px;vertical-align:bottom;font-size:11pt;text-align:center;&quot;&gt;13/11/24&lt;/td&gt;&lt;td style=&quot;border-right:1px solid #000000;border-bottom:1px solid #000000;overflow:hidden;padding:0px 3px 0px 3px;vertical-align:bottom;font-size:11pt;text-align:center;&quot;&gt;17/12/24&lt;/td&gt;&lt;td style=&quot;border-right:1px solid #000000;border-bottom:1px solid #000000;overflow:hidden;padding:0px 3px 0px 3px;vertical-align:bottom;font-size:11pt;text-align:center;&quot;&gt;17/12/24&lt;/td&gt;&lt;/tr&gt;&lt;tr style=&quot;height:17px;&quot;&gt;&lt;td style=&quot;border-right:1px solid #000000;border-bottom:1px solid #000000;border-left:1px solid #000000;overflow:hidden;padding:0px 3px 0px 3px;vertical-align:bottom;font-size:11pt;text-align:center;&quot;&gt;I&lt;/td&gt;&lt;td style=&quot;border-right:1px solid #000000;border-bottom:1px solid #000000;overflow:hidden;padding:0px 3px 0px 3px;vertical-align:middle;font-size:11pt;text-align:center;&quot;&gt;07/11/24&lt;/td&gt;&lt;td style=&quot;border-right:1px solid #000000;border-bottom:1px solid #000000;overflow:hidden;padding:0px 3px 0px 3px;vertical-align:middle;font-size:11pt;text-align:center;&quot;&gt;13/11/24&lt;/td&gt;&lt;td style=&quot;border-right:1px solid #000000;border-bottom:1px solid #000000;overflow:hidden;padding:0px 3px 0px 3px;vertical-align:middle;font-size:11pt;text-align:center;&quot;&gt;17/12/24&lt;/td&gt;&lt;/tr&gt;&lt;tr style=&quot;height:17px;&quot;&gt;&lt;td style=&quot;border-right:1px solid #000000;border-bottom:1px solid #000000;border-left:1px solid #000000;overflow:hidden;padding:0px 3px 0px 3px;vertical-align:bottom;font-size:11pt;text-align:center;&quot;&gt;J&lt;/td&gt;&lt;td style=&quot;border-right:1px solid #000000;border-bottom:1px solid #000000;overflow:hidden;padding:0px 3px 0px 3px;vertical-align:middle;font-size:11pt;text-align:center;&quot;&gt;27/11/24&lt;/td&gt;&lt;td style=&quot;border-right:1px solid #000000;border-bottom:1px solid #000000;overflow:hidden;padding:0px 3px 0px 3px;vertical-align:middle;font-size:11pt;text-align:center;&quot;&gt;28/11/24&lt;/td&gt;&lt;td style=&quot;border-right:1px solid #000000;border-bottom:1px solid #000000;overflow:hidden;padding:0px 3px 0px 3px;vertical-align:middle;font-size:11pt;text-align:center;&quot;&gt;18/02/25&lt;/td&gt;&lt;/tr&gt;&lt;tr style=&quot;height:17px;&quot;&gt;&lt;td style=&quot;border-right:1px solid #000000;border-bottom:1px solid #000000;border-left:1px solid #000000;overflow:hidden;padding:0px 3px 0px 3px;vertical-align:bottom;font-size:11pt;text-align:center;&quot;&gt;K&lt;/td&gt;&lt;td style=&quot;border-right:1px solid #000000;border-bottom:1px solid #000000;overflow:hidden;padding:0px 3px 0px 3px;vertical-align:middle;font-size:11pt;text-align:center;&quot;&gt;27/11/24&lt;/td&gt;&lt;td style=&quot;border-right:1px solid #000000;border-bottom:1px solid #000000;overflow:hidden;padding:0px 3px 0px 3px;vertical-align:middle;font-size:11pt;text-align:center;&quot;&gt;27/11/24&lt;/td&gt;&lt;td style=&quot;border-right:1px solid #000000;border-bottom:1px solid #000000;overflow:hidden;padding:0px 3px 0px 3px;vertical-align:middle;font-size:11pt;text-align:center;&quot;&gt;18/02/25&lt;/td&gt;&lt;/tr&gt;&lt;tr style=&quot;height:17px;&quot;&gt;&lt;td style=&quot;border-right:1px solid #000000;border-bottom:1px solid #000000;border-left:1px solid #000000;overflow:hidden;padding:0px 3px 0px 3px;vertical-align:bottom;font-size:11pt;text-align:center;&quot;&gt;L&lt;/td&gt;&lt;td style=&quot;border-right:1px solid #000000;border-bottom:1px solid #000000;overflow:hidden;padding:0px 3px 0px 3px;vertical-align:middle;font-size:11pt;text-align:center;&quot;&gt;18/12/24&lt;/td&gt;&lt;td style=&quot;border-right:1px solid #000000;border-bottom:1px solid #000000;overflow:hidden;padding:0px 3px 0px 3px;vertical-align:middle;font-size:11pt;text-align:center;&quot;&gt;09/01/25&lt;/td&gt;&lt;td style=&quot;border-right:1px solid #000000;border-bottom:1px solid #000000;overflow:hidden;padding:0px 3px 0px 3px;vertical-align:middle;font-size:11pt;text-align:center;&quot;&gt;09/01/25&lt;/td&gt;&lt;/tr&gt;&lt;tr style=&quot;height:17px;&quot;&gt;&lt;td style=&quot;border-right:1px solid #000000;border-bottom:1px solid #000000;border-left:1px solid #000000;overflow:hidden;padding:0px 3px 0px 3px;vertical-align:bottom;font-size:11pt;text-align:center;&quot;&gt;M&lt;/td&gt;&lt;td style=&quot;border-right:1px solid #000000;border-bottom:1px solid #000000;overflow:hidden;padding:0px 3px 0px 3px;vertical-align:middle;font-size:11pt;text-align:center;&quot;&gt;28/11/24&lt;/td&gt;&lt;td style=&quot;border-right:1px solid #000000;border-bottom:1px solid #000000;overflow:hidden;padding:0px 3px 0px 3px;vertical-align:middle;font-size:11pt;text-align:center;&quot;&gt;27/01/25&lt;/td&gt;&lt;td style=&quot;border-right:1px solid #000000;border-bottom:1px solid #000000;overflow:hidden;padding:0px 3px 0px 3px;vertical-align:middle;font-size:11pt;text-align:center;&quot;&gt;06/03/25&lt;/td&gt;&lt;/tr&gt;&lt;tr style=&quot;height:17px;&quot;&gt;&lt;td style=&quot;border-right:1px solid #000000;border-bottom:1px solid #000000;border-left:1px solid #000000;overflow:hidden;padding:0px 3px 0px 3px;vertical-align:bottom;font-size:11pt;text-align:center;&quot;&gt;N&lt;/td&gt;&lt;td style=&quot;border-right:1px solid #000000;border-bottom:1px solid #000000;overflow:hidden;padding:0px 3px 0px 3px;vertical-align:middle;font-size:11pt;text-align:center;&quot;&gt;10/01/25&lt;/td&gt;&lt;td style=&quot;border-right:1px solid #000000;border-bottom:1px solid #000000;overflow:hidden;padding:0px 3px 0px 3px;vertical-align:middle;font-size:11pt;text-align:center;&quot;&gt;23/01/25&lt;/td&gt;&lt;td style=&quot;border-right:1px solid #000000;border-bottom:1px solid #000000;overflow:hidden;padding:0px 3px 0px 3px;vertical-align:middle;font-size:11pt;text-align:center;&quot;&gt;23/01/25&lt;/td&gt;&lt;/tr&gt;&lt;tr style=&quot;height:17px;&quot;&gt;&lt;td style=&quot;border-right:1px solid #000000;border-bottom:1px solid #000000;border-left:1px solid #000000;overflow:hidden;padding:0px 3px 0px 3px;vertical-align:bottom;font-size:11pt;text-align:center;&quot;&gt;O&lt;/td&gt;&lt;td style=&quot;border-right:1px solid #000000;border-bottom:1px solid #000000;overflow:hidden;padding:0px 3px 0px 3px;vertical-align:middle;font-size:11pt;text-align:center;&quot;&gt;24/01/25&lt;/td&gt;&lt;td style=&quot;border-right:1px solid #000000;border-bottom:1px solid #000000;overflow:hidden;padding:0px 3px 0px 3px;vertical-align:middle;font-size:11pt;text-align:center;&quot;&gt;06/03/25&lt;/td&gt;&lt;td style=&quot;border-right:1px solid #000000;border-bottom:1px solid #000000;overflow:hidden;padding:0px 3px 0px 3px;vertical-align:middle;font-size:11pt;text-align:center;&quot;&gt;06/03/25&lt;/td&gt;&lt;/tr&gt;&lt;/tbody&gt;&lt;/table&gt;" link="&lt;table xmlns=&quot;http://www.w3.org/1999/xhtml&quot; cellspacing=&quot;0&quot; cellpadding=&quot;0&quot; dir=&quot;ltr&quot; border=&quot;1&quot; style=&quot;table-layout:fixed;font-size:10pt;font-family:Arial;width:0px;border-collapse:collapse;border:none&quot; data-sheets-root=&quot;1&quot; data-sheets-baot=&quot;1&quot;&gt;&lt;colgroup&gt;&lt;col width=&quot;70&quot;&gt;&lt;col width=&quot;206&quot;&gt;&lt;col width=&quot;130&quot;&gt;&lt;col width=&quot;115&quot;&gt;&lt;/colgroup&gt;&lt;tbody&gt;&lt;tr style=&quot;height:17px;&quot;&gt;&lt;td style=&quot;border-right:1px solid #000000;border-bottom:1px solid #000000;overflow:hidden;padding:0px 3px 0px 3px;vertical-align:middle;&quot;&gt;&lt;/td&gt;&lt;td style=&quot;border-top:1px solid #000000;border-right:1px solid #000000;border-bottom:1px solid #000000;overflow:hidden;padding:0px 3px 0px 3px;vertical-align:middle;font-size:11pt;text-align:center;&quot;&gt;début&lt;/td&gt;&lt;td style=&quot;border-top:1px solid #000000;border-right:1px solid #000000;border-bottom:1px solid #000000;overflow:hidden;padding:0px 3px 0px 3px;vertical-align:middle;font-size:11pt;text-align:center;&quot;&gt;fin au plus tôt&lt;/td&gt;&lt;td style=&quot;border-top:1px solid #000000;border-right:1px solid #000000;border-bottom:1px solid #000000;overflow:hidden;padding:0px 3px 0px 3px;vertical-align:middle;font-size:11pt;text-align:center;&quot;&gt;fin au plus tard&lt;/td&gt;&lt;/tr&gt;&lt;tr style=&quot;height:17px;&quot;&gt;&lt;td style=&quot;border-right:1px solid #000000;border-bottom:1px solid #000000;border-left:1px solid #000000;overflow:hidden;padding:0px 3px 0px 3px;vertical-align:bottom;font-size:11pt;text-align:center;&quot;&gt;A&lt;/td&gt;&lt;td style=&quot;border-right:1px solid #000000;border-bottom:1px solid #000000;overflow:hidden;padding:0px 3px 0px 3px;vertical-align:bottom;font-size:11pt;text-align:center;&quot;&gt;21/10/24&lt;/td&gt;&lt;td style=&quot;border-right:1px solid #000000;border-bottom:1px solid #000000;overflow:hidden;padding:0px 3px 0px 3px;vertical-align:bottom;&quot;&gt;&lt;/td&gt;&lt;td style=&quot;border-right:1px solid #000000;border-bottom:1px solid #000000;overflow:hidden;padding:0px 3px 0px 3px;vertical-align:bottom;&quot;&gt;&lt;/td&gt;&lt;/tr&gt;&lt;tr style=&quot;height:17px;&quot;&gt;&lt;td style=&quot;border-right:1px solid #000000;border-bottom:1px solid #000000;border-left:1px solid #000000;overflow:hidden;padding:0px 3px 0px 3px;vertical-align:bottom;font-size:11pt;text-align:center;&quot;&gt;B&lt;/td&gt;&lt;td style=&quot;border-right:1px solid #000000;border-bottom:1px solid #000000;overflow:hidden;padding:0px 3px 0px 3px;vertical-align:bottom;font-size:11pt;text-align:center;&quot;&gt;25/10/24&lt;/td&gt;&lt;td style=&quot;border-right:1px solid #000000;border-bottom:1px solid #000000;overflow:hidden;padding:0px 3px 0px 3px;vertical-align:bottom;font-size:11pt;text-align:center;&quot;&gt;25/10/24&lt;/td&gt;&lt;td style=&quot;border-right:1px solid #000000;border-bottom:1px solid #000000;overflow:hidden;padding:0px 3px 0px 3px;vertical-align:bottom;font-size:11pt;text-align:center;&quot;&gt;25/10/24&lt;/td&gt;&lt;/tr&gt;&lt;tr style=&quot;height:17px;&quot;&gt;&lt;td style=&quot;border-right:1px solid #000000;border-bottom:1px solid #000000;border-left:1px solid #000000;overflow:hidden;padding:0px 3px 0px 3px;vertical-align:bottom;font-size:11pt;text-align:center;&quot;&gt;C&lt;/td&gt;&lt;td style=&quot;border-right:1px solid #000000;border-bottom:1px solid #000000;overflow:hidden;padding:0px 3px 0px 3px;vertical-align:bottom;font-size:11pt;text-align:center;&quot;&gt;21/10/24&lt;/td&gt;&lt;td style=&quot;border-right:1px solid #000000;border-bottom:1px solid #000000;overflow:hidden;padding:0px 3px 0px 3px;vertical-align:bottom;font-size:11pt;text-align:center;&quot;&gt;22/10/24&lt;/td&gt;&lt;td style=&quot;border-right:1px solid #000000;border-bottom:1px solid #000000;overflow:hidden;padding:0px 3px 0px 3px;vertical-align:bottom;font-size:11pt;text-align:center;&quot;&gt;29/10/24&lt;/td&gt;&lt;/tr&gt;&lt;tr style=&quot;height:17px;&quot;&gt;&lt;td style=&quot;border-right:1px solid #000000;border-bottom:1px solid #000000;border-left:1px solid #000000;overflow:hidden;padding:0px 3px 0px 3px;vertical-align:bottom;font-size:11pt;text-align:center;&quot;&gt;D&lt;/td&gt;&lt;td style=&quot;border-right:1px solid #000000;border-bottom:1px solid #000000;overflow:hidden;padding:0px 3px 0px 3px;vertical-align:bottom;font-size:11pt;text-align:center;&quot;&gt;28/10/24&lt;/td&gt;&lt;td style=&quot;border-right:1px solid #000000;border-bottom:1px solid #000000;overflow:hidden;padding:0px 3px 0px 3px;vertical-align:bottom;font-size:11pt;text-align:center;&quot;&gt;12/11/24&lt;/td&gt;&lt;td style=&quot;border-right:1px solid #000000;border-bottom:1px solid #000000;overflow:hidden;padding:0px 3px 0px 3px;vertical-align:bottom;font-size:11pt;text-align:center;&quot;&gt;03/12/24&lt;/td&gt;&lt;/tr&gt;&lt;tr style=&quot;height:17px;&quot;&gt;&lt;td style=&quot;border-right:1px solid #000000;border-bottom:1px solid #000000;border-left:1px solid #000000;overflow:hidden;padding:0px 3px 0px 3px;vertical-align:bottom;font-size:11pt;text-align:center;&quot;&gt;E&lt;/td&gt;&lt;td style=&quot;border-right:1px solid #000000;border-bottom:1px solid #000000;overflow:hidden;padding:0px 3px 0px 3px;vertical-align:bottom;font-size:11pt;text-align:center;&quot;&gt;23/10/24&lt;/td&gt;&lt;td style=&quot;border-right:1px solid #000000;border-bottom:1px solid #000000;overflow:hidden;padding:0px 3px 0px 3px;vertical-align:bottom;font-size:11pt;text-align:center;&quot;&gt;06/11/24&lt;/td&gt;&lt;td style=&quot;border-right:1px solid #000000;border-bottom:1px solid #000000;overflow:hidden;padding:0px 3px 0px 3px;vertical-align:bottom;font-size:11pt;text-align:center;&quot;&gt;11/12/24&lt;/td&gt;&lt;/tr&gt;&lt;tr style=&quot;height:17px;&quot;&gt;&lt;td style=&quot;border-right:1px solid #000000;border-bottom:1px solid #000000;border-left:1px solid #000000;overflow:hidden;padding:0px 3px 0px 3px;vertical-align:bottom;font-size:11pt;text-align:center;&quot;&gt;F&lt;/td&gt;&lt;td style=&quot;border-right:1px solid #000000;border-bottom:1px solid #000000;overflow:hidden;padding:0px 3px 0px 3px;vertical-align:bottom;font-size:11pt;text-align:center;&quot;&gt;23/10/24&lt;/td&gt;&lt;td style=&quot;border-right:1px solid #000000;border-bottom:1px solid #000000;overflow:hidden;padding:0px 3px 0px 3px;vertical-align:bottom;font-size:11pt;text-align:center;&quot;&gt;12/11/24&lt;/td&gt;&lt;td style=&quot;border-right:1px solid #000000;border-bottom:1px solid #000000;overflow:hidden;padding:0px 3px 0px 3px;vertical-align:bottom;font-size:11pt;text-align:center;&quot;&gt;12/11/24&lt;/td&gt;&lt;/tr&gt;&lt;tr style=&quot;height:17px;&quot;&gt;&lt;td style=&quot;border-right:1px solid #000000;border-bottom:1px solid #000000;border-left:1px solid #000000;overflow:hidden;padding:0px 3px 0px 3px;vertical-align:bottom;font-size:11pt;text-align:center;&quot;&gt;G&lt;/td&gt;&lt;td style=&quot;border-right:1px solid #000000;border-bottom:1px solid #000000;overflow:hidden;padding:0px 3px 0px 3px;vertical-align:bottom;font-size:11pt;text-align:center;&quot;&gt;13/11/24&lt;/td&gt;&lt;td style=&quot;border-right:1px solid #000000;border-bottom:1px solid #000000;overflow:hidden;padding:0px 3px 0px 3px;vertical-align:bottom;font-size:11pt;text-align:center;&quot;&gt;26/11/24&lt;/td&gt;&lt;td style=&quot;border-right:1px solid #000000;border-bottom:1px solid #000000;overflow:hidden;padding:0px 3px 0px 3px;vertical-align:bottom;font-size:11pt;text-align:center;&quot;&gt;17/12/24&lt;/td&gt;&lt;/tr&gt;&lt;tr style=&quot;height:17px;&quot;&gt;&lt;td style=&quot;border-right:1px solid #000000;border-bottom:1px solid #000000;border-left:1px solid #000000;overflow:hidden;padding:0px 3px 0px 3px;vertical-align:bottom;font-size:11pt;text-align:center;&quot;&gt;H&lt;/td&gt;&lt;td style=&quot;border-right:1px solid #000000;border-bottom:1px solid #000000;overflow:hidden;padding:0px 3px 0px 3px;vertical-align:bottom;font-size:11pt;text-align:center;&quot;&gt;13/11/24&lt;/td&gt;&lt;td style=&quot;border-right:1px solid #000000;border-bottom:1px solid #000000;overflow:hidden;padding:0px 3px 0px 3px;vertical-align:bottom;font-size:11pt;text-align:center;&quot;&gt;17/12/24&lt;/td&gt;&lt;td style=&quot;border-right:1px solid #000000;border-bottom:1px solid #000000;overflow:hidden;padding:0px 3px 0px 3px;vertical-align:bottom;font-size:11pt;text-align:center;&quot;&gt;17/12/24&lt;/td&gt;&lt;/tr&gt;&lt;tr style=&quot;height:17px;&quot;&gt;&lt;td style=&quot;border-right:1px solid #000000;border-bottom:1px solid #000000;border-left:1px solid #000000;overflow:hidden;padding:0px 3px 0px 3px;vertical-align:bottom;font-size:11pt;text-align:center;&quot;&gt;I&lt;/td&gt;&lt;td style=&quot;border-right:1px solid #000000;border-bottom:1px solid #000000;overflow:hidden;padding:0px 3px 0px 3px;vertical-align:middle;font-size:11pt;text-align:center;&quot;&gt;07/11/24&lt;/td&gt;&lt;td style=&quot;border-right:1px solid #000000;border-bottom:1px solid #000000;overflow:hidden;padding:0px 3px 0px 3px;vertical-align:middle;font-size:11pt;text-align:center;&quot;&gt;13/11/24&lt;/td&gt;&lt;td style=&quot;border-right:1px solid #000000;border-bottom:1px solid #000000;overflow:hidden;padding:0px 3px 0px 3px;vertical-align:middle;font-size:11pt;text-align:center;&quot;&gt;17/12/24&lt;/td&gt;&lt;/tr&gt;&lt;tr style=&quot;height:17px;&quot;&gt;&lt;td style=&quot;border-right:1px solid #000000;border-bottom:1px solid #000000;border-left:1px solid #000000;overflow:hidden;padding:0px 3px 0px 3px;vertical-align:bottom;font-size:11pt;text-align:center;&quot;&gt;J&lt;/td&gt;&lt;td style=&quot;border-right:1px solid #000000;border-bottom:1px solid #000000;overflow:hidden;padding:0px 3px 0px 3px;vertical-align:middle;font-size:11pt;text-align:center;&quot;&gt;27/11/24&lt;/td&gt;&lt;td style=&quot;border-right:1px solid #000000;border-bottom:1px solid #000000;overflow:hidden;padding:0px 3px 0px 3px;vertical-align:middle;font-size:11pt;text-align:center;&quot;&gt;28/11/24&lt;/td&gt;&lt;td style=&quot;border-right:1px solid #000000;border-bottom:1px solid #000000;overflow:hidden;padding:0px 3px 0px 3px;vertical-align:middle;font-size:11pt;text-align:center;&quot;&gt;18/02/25&lt;/td&gt;&lt;/tr&gt;&lt;tr style=&quot;height:17px;&quot;&gt;&lt;td style=&quot;border-right:1px solid #000000;border-bottom:1px solid #000000;border-left:1px solid #000000;overflow:hidden;padding:0px 3px 0px 3px;vertical-align:bottom;font-size:11pt;text-align:center;&quot;&gt;K&lt;/td&gt;&lt;td style=&quot;border-right:1px solid #000000;border-bottom:1px solid #000000;overflow:hidden;padding:0px 3px 0px 3px;vertical-align:middle;font-size:11pt;text-align:center;&quot;&gt;27/11/24&lt;/td&gt;&lt;td style=&quot;border-right:1px solid #000000;border-bottom:1px solid #000000;overflow:hidden;padding:0px 3px 0px 3px;vertical-align:middle;font-size:11pt;text-align:center;&quot;&gt;27/11/24&lt;/td&gt;&lt;td style=&quot;border-right:1px solid #000000;border-bottom:1px solid #000000;overflow:hidden;padding:0px 3px 0px 3px;vertical-align:middle;font-size:11pt;text-align:center;&quot;&gt;18/02/25&lt;/td&gt;&lt;/tr&gt;&lt;tr style=&quot;height:17px;&quot;&gt;&lt;td style=&quot;border-right:1px solid #000000;border-bottom:1px solid #000000;border-left:1px solid #000000;overflow:hidden;padding:0px 3px 0px 3px;vertical-align:bottom;font-size:11pt;text-align:center;&quot;&gt;L&lt;/td&gt;&lt;td style=&quot;border-right:1px solid #000000;border-bottom:1px solid #000000;overflow:hidden;padding:0px 3px 0px 3px;vertical-align:middle;font-size:11pt;text-align:center;&quot;&gt;18/12/24&lt;/td&gt;&lt;td style=&quot;border-right:1px solid #000000;border-bottom:1px solid #000000;overflow:hidden;padding:0px 3px 0px 3px;vertical-align:middle;font-size:11pt;text-align:center;&quot;&gt;09/01/25&lt;/td&gt;&lt;td style=&quot;border-right:1px solid #000000;border-bottom:1px solid #000000;overflow:hidden;padding:0px 3px 0px 3px;vertical-align:middle;font-size:11pt;text-align:center;&quot;&gt;09/01/25&lt;/td&gt;&lt;/tr&gt;&lt;tr style=&quot;height:17px;&quot;&gt;&lt;td style=&quot;border-right:1px solid #000000;border-bottom:1px solid #000000;border-left:1px solid #000000;overflow:hidden;padding:0px 3px 0px 3px;vertical-align:bottom;font-size:11pt;text-align:center;&quot;&gt;M&lt;/td&gt;&lt;td style=&quot;border-right:1px solid #000000;border-bottom:1px solid #000000;overflow:hidden;padding:0px 3px 0px 3px;vertical-align:middle;font-size:11pt;text-align:center;&quot;&gt;28/11/24&lt;/td&gt;&lt;td style=&quot;border-right:1px solid #000000;border-bottom:1px solid #000000;overflow:hidden;padding:0px 3px 0px 3px;vertical-align:middle;font-size:11pt;text-align:center;&quot;&gt;27/01/25&lt;/td&gt;&lt;td style=&quot;border-right:1px solid #000000;border-bottom:1px solid #000000;overflow:hidden;padding:0px 3px 0px 3px;vertical-align:middle;font-size:11pt;text-align:center;&quot;&gt;06/03/25&lt;/td&gt;&lt;/tr&gt;&lt;tr style=&quot;height:17px;&quot;&gt;&lt;td style=&quot;border-right:1px solid #000000;border-bottom:1px solid #000000;border-left:1px solid #000000;overflow:hidden;padding:0px 3px 0px 3px;vertical-align:bottom;font-size:11pt;text-align:center;&quot;&gt;N&lt;/td&gt;&lt;td style=&quot;border-right:1px solid #000000;border-bottom:1px solid #000000;overflow:hidden;padding:0px 3px 0px 3px;vertical-align:middle;font-size:11pt;text-align:center;&quot;&gt;10/01/25&lt;/td&gt;&lt;td style=&quot;border-right:1px solid #000000;border-bottom:1px solid #000000;overflow:hidden;padding:0px 3px 0px 3px;vertical-align:middle;font-size:11pt;text-align:center;&quot;&gt;23/01/25&lt;/td&gt;&lt;td style=&quot;border-right:1px solid #000000;border-bottom:1px solid #000000;overflow:hidden;padding:0px 3px 0px 3px;vertical-align:middle;font-size:11pt;text-align:center;&quot;&gt;23/01/25&lt;/td&gt;&lt;/tr&gt;&lt;tr style=&quot;height:17px;&quot;&gt;&lt;td style=&quot;border-right:1px solid #000000;border-bottom:1px solid #000000;border-left:1px solid #000000;overflow:hidden;padding:0px 3px 0px 3px;vertical-align:bottom;font-size:11pt;text-align:center;&quot;&gt;O&lt;/td&gt;&lt;td style=&quot;border-right:1px solid #000000;border-bottom:1px solid #000000;overflow:hidden;padding:0px 3px 0px 3px;vertical-align:middle;font-size:11pt;text-align:center;&quot;&gt;24/01/25&lt;/td&gt;&lt;td style=&quot;border-right:1px solid #000000;border-bottom:1px solid #000000;overflow:hidden;padding:0px 3px 0px 3px;vertical-align:middle;font-size:11pt;text-align:center;&quot;&gt;06/03/25&lt;/td&gt;&lt;td style=&quot;border-right:1px solid #000000;border-bottom:1px solid #000000;overflow:hidden;padding:0px 3px 0px 3px;vertical-align:middle;font-size:11pt;text-align:center;&quot;&gt;06/03/25&lt;/td&gt;&lt;/tr&gt;&lt;/tbody&gt;&lt;/table&gt;" id="nkoWDAR4F6Ay1qJvylJF-1">
          <mxCell style="text;whiteSpace=wrap;html=1;" vertex="1" parent="1">
            <mxGeometry x="245" y="595" width="560" height="320" as="geometry" />
          </mxCell>
        </UserObject>
      </root>
    </mxGraphModel>
  </diagram>
</mxfile>
